G04 #@! TF.GenerationSoftware,KiCad,Pcbnew,5.1.4*
G04 #@! TF.CreationDate,2020-01-07T14:28:49-05:00*
G04 #@! TF.ProjectId,model-train-cdu,6d6f6465-6c2d-4747-9261-696e2d636475,rev?*
G04 #@! TF.SameCoordinates,Original*
G04 #@! TF.FileFunction,Copper,L1,Top*
G04 #@! TF.FilePolarity,Positive*
%FSLAX46Y46*%
G04 Gerber Fmt 4.6, Leading zero omitted, Abs format (unit mm)*
G04 Created by KiCad (PCBNEW 5.1.4) date 2020-01-07 14:28:49*
%MOMM*%
%LPD*%
G04 APERTURE LIST*
%ADD10C,2.600000*%
%ADD11R,2.600000X2.600000*%
%ADD12C,0.100000*%
%ADD13C,1.250000*%
%ADD14O,1.905000X2.000000*%
%ADD15R,1.905000X2.000000*%
%ADD16R,2.500000X1.800000*%
%ADD17R,2.000000X2.000000*%
%ADD18C,2.000000*%
%ADD19C,1.016000*%
G04 APERTURE END LIST*
D10*
X46400000Y-10800000D03*
X46400000Y-5800000D03*
X46400000Y-800000D03*
X46400000Y4200000D03*
X46400000Y9200000D03*
X46400000Y14200000D03*
X46400000Y19200000D03*
X46400000Y24200000D03*
X46400000Y29200000D03*
X46400000Y34200000D03*
X46400000Y39200000D03*
D11*
X46400000Y44200000D03*
D10*
X116300000Y44200000D03*
X116300000Y39200000D03*
X116300000Y34200000D03*
X116300000Y29200000D03*
X116300000Y24200000D03*
X116300000Y19200000D03*
X116300000Y14200000D03*
X116300000Y9200000D03*
X116300000Y4200000D03*
X116300000Y-800000D03*
X116300000Y-5800000D03*
D11*
X116300000Y-10800000D03*
D10*
X43900000Y52300000D03*
X48900000Y52300000D03*
X53900000Y52300000D03*
X58900000Y52300000D03*
X63900000Y52300000D03*
X68900000Y52300000D03*
X73900000Y52300000D03*
X78900000Y52300000D03*
X83900000Y52300000D03*
X88900000Y52300000D03*
X93900000Y52300000D03*
X98900000Y52300000D03*
X103900000Y52300000D03*
X108900000Y52300000D03*
X113900000Y52300000D03*
D11*
X118900000Y52300000D03*
D10*
X118900000Y-18900000D03*
X113900000Y-18900000D03*
X108900000Y-18900000D03*
X103900000Y-18900000D03*
X98900000Y-18900000D03*
X93900000Y-18900000D03*
X88900000Y-18900000D03*
X83900000Y-18900000D03*
X78900000Y-18900000D03*
X73900000Y-18900000D03*
X68900000Y-18900000D03*
X63900000Y-18900000D03*
X58900000Y-18900000D03*
X53900000Y-18900000D03*
X48900000Y-18900000D03*
D11*
X43900000Y-18900000D03*
D12*
G36*
X72399504Y523796D02*
G01*
X72423773Y520196D01*
X72447571Y514235D01*
X72470671Y505970D01*
X72492849Y495480D01*
X72513893Y482867D01*
X72533598Y468253D01*
X72551777Y451777D01*
X72568253Y433598D01*
X72582867Y413893D01*
X72595480Y392849D01*
X72605970Y370671D01*
X72614235Y347571D01*
X72620196Y323773D01*
X72623796Y299504D01*
X72625000Y275000D01*
X72625000Y-975000D01*
X72623796Y-999504D01*
X72620196Y-1023773D01*
X72614235Y-1047571D01*
X72605970Y-1070671D01*
X72595480Y-1092849D01*
X72582867Y-1113893D01*
X72568253Y-1133598D01*
X72551777Y-1151777D01*
X72533598Y-1168253D01*
X72513893Y-1182867D01*
X72492849Y-1195480D01*
X72470671Y-1205970D01*
X72447571Y-1214235D01*
X72423773Y-1220196D01*
X72399504Y-1223796D01*
X72375000Y-1225000D01*
X71625000Y-1225000D01*
X71600496Y-1223796D01*
X71576227Y-1220196D01*
X71552429Y-1214235D01*
X71529329Y-1205970D01*
X71507151Y-1195480D01*
X71486107Y-1182867D01*
X71466402Y-1168253D01*
X71448223Y-1151777D01*
X71431747Y-1133598D01*
X71417133Y-1113893D01*
X71404520Y-1092849D01*
X71394030Y-1070671D01*
X71385765Y-1047571D01*
X71379804Y-1023773D01*
X71376204Y-999504D01*
X71375000Y-975000D01*
X71375000Y275000D01*
X71376204Y299504D01*
X71379804Y323773D01*
X71385765Y347571D01*
X71394030Y370671D01*
X71404520Y392849D01*
X71417133Y413893D01*
X71431747Y433598D01*
X71448223Y451777D01*
X71466402Y468253D01*
X71486107Y482867D01*
X71507151Y495480D01*
X71529329Y505970D01*
X71552429Y514235D01*
X71576227Y520196D01*
X71600496Y523796D01*
X71625000Y525000D01*
X72375000Y525000D01*
X72399504Y523796D01*
X72399504Y523796D01*
G37*
D13*
X72000000Y-350000D03*
D12*
G36*
X69599504Y523796D02*
G01*
X69623773Y520196D01*
X69647571Y514235D01*
X69670671Y505970D01*
X69692849Y495480D01*
X69713893Y482867D01*
X69733598Y468253D01*
X69751777Y451777D01*
X69768253Y433598D01*
X69782867Y413893D01*
X69795480Y392849D01*
X69805970Y370671D01*
X69814235Y347571D01*
X69820196Y323773D01*
X69823796Y299504D01*
X69825000Y275000D01*
X69825000Y-975000D01*
X69823796Y-999504D01*
X69820196Y-1023773D01*
X69814235Y-1047571D01*
X69805970Y-1070671D01*
X69795480Y-1092849D01*
X69782867Y-1113893D01*
X69768253Y-1133598D01*
X69751777Y-1151777D01*
X69733598Y-1168253D01*
X69713893Y-1182867D01*
X69692849Y-1195480D01*
X69670671Y-1205970D01*
X69647571Y-1214235D01*
X69623773Y-1220196D01*
X69599504Y-1223796D01*
X69575000Y-1225000D01*
X68825000Y-1225000D01*
X68800496Y-1223796D01*
X68776227Y-1220196D01*
X68752429Y-1214235D01*
X68729329Y-1205970D01*
X68707151Y-1195480D01*
X68686107Y-1182867D01*
X68666402Y-1168253D01*
X68648223Y-1151777D01*
X68631747Y-1133598D01*
X68617133Y-1113893D01*
X68604520Y-1092849D01*
X68594030Y-1070671D01*
X68585765Y-1047571D01*
X68579804Y-1023773D01*
X68576204Y-999504D01*
X68575000Y-975000D01*
X68575000Y275000D01*
X68576204Y299504D01*
X68579804Y323773D01*
X68585765Y347571D01*
X68594030Y370671D01*
X68604520Y392849D01*
X68617133Y413893D01*
X68631747Y433598D01*
X68648223Y451777D01*
X68666402Y468253D01*
X68686107Y482867D01*
X68707151Y495480D01*
X68729329Y505970D01*
X68752429Y514235D01*
X68776227Y520196D01*
X68800496Y523796D01*
X68825000Y525000D01*
X69575000Y525000D01*
X69599504Y523796D01*
X69599504Y523796D01*
G37*
D13*
X69200000Y-350000D03*
D12*
G36*
X72554505Y-6511205D02*
G01*
X72578774Y-6514805D01*
X72602572Y-6520766D01*
X72625672Y-6529031D01*
X72647850Y-6539521D01*
X72668894Y-6552134D01*
X72688599Y-6566748D01*
X72706778Y-6583224D01*
X72723254Y-6601403D01*
X72737868Y-6621108D01*
X72750481Y-6642152D01*
X72760971Y-6664330D01*
X72769236Y-6687430D01*
X72775197Y-6711228D01*
X72778797Y-6735497D01*
X72780001Y-6760001D01*
X72780001Y-8010001D01*
X72778797Y-8034505D01*
X72775197Y-8058774D01*
X72769236Y-8082572D01*
X72760971Y-8105672D01*
X72750481Y-8127850D01*
X72737868Y-8148894D01*
X72723254Y-8168599D01*
X72706778Y-8186778D01*
X72688599Y-8203254D01*
X72668894Y-8217868D01*
X72647850Y-8230481D01*
X72625672Y-8240971D01*
X72602572Y-8249236D01*
X72578774Y-8255197D01*
X72554505Y-8258797D01*
X72530001Y-8260001D01*
X71780001Y-8260001D01*
X71755497Y-8258797D01*
X71731228Y-8255197D01*
X71707430Y-8249236D01*
X71684330Y-8240971D01*
X71662152Y-8230481D01*
X71641108Y-8217868D01*
X71621403Y-8203254D01*
X71603224Y-8186778D01*
X71586748Y-8168599D01*
X71572134Y-8148894D01*
X71559521Y-8127850D01*
X71549031Y-8105672D01*
X71540766Y-8082572D01*
X71534805Y-8058774D01*
X71531205Y-8034505D01*
X71530001Y-8010001D01*
X71530001Y-6760001D01*
X71531205Y-6735497D01*
X71534805Y-6711228D01*
X71540766Y-6687430D01*
X71549031Y-6664330D01*
X71559521Y-6642152D01*
X71572134Y-6621108D01*
X71586748Y-6601403D01*
X71603224Y-6583224D01*
X71621403Y-6566748D01*
X71641108Y-6552134D01*
X71662152Y-6539521D01*
X71684330Y-6529031D01*
X71707430Y-6520766D01*
X71731228Y-6514805D01*
X71755497Y-6511205D01*
X71780001Y-6510001D01*
X72530001Y-6510001D01*
X72554505Y-6511205D01*
X72554505Y-6511205D01*
G37*
D13*
X72155001Y-7385001D03*
D12*
G36*
X69754505Y-6511205D02*
G01*
X69778774Y-6514805D01*
X69802572Y-6520766D01*
X69825672Y-6529031D01*
X69847850Y-6539521D01*
X69868894Y-6552134D01*
X69888599Y-6566748D01*
X69906778Y-6583224D01*
X69923254Y-6601403D01*
X69937868Y-6621108D01*
X69950481Y-6642152D01*
X69960971Y-6664330D01*
X69969236Y-6687430D01*
X69975197Y-6711228D01*
X69978797Y-6735497D01*
X69980001Y-6760001D01*
X69980001Y-8010001D01*
X69978797Y-8034505D01*
X69975197Y-8058774D01*
X69969236Y-8082572D01*
X69960971Y-8105672D01*
X69950481Y-8127850D01*
X69937868Y-8148894D01*
X69923254Y-8168599D01*
X69906778Y-8186778D01*
X69888599Y-8203254D01*
X69868894Y-8217868D01*
X69847850Y-8230481D01*
X69825672Y-8240971D01*
X69802572Y-8249236D01*
X69778774Y-8255197D01*
X69754505Y-8258797D01*
X69730001Y-8260001D01*
X68980001Y-8260001D01*
X68955497Y-8258797D01*
X68931228Y-8255197D01*
X68907430Y-8249236D01*
X68884330Y-8240971D01*
X68862152Y-8230481D01*
X68841108Y-8217868D01*
X68821403Y-8203254D01*
X68803224Y-8186778D01*
X68786748Y-8168599D01*
X68772134Y-8148894D01*
X68759521Y-8127850D01*
X68749031Y-8105672D01*
X68740766Y-8082572D01*
X68734805Y-8058774D01*
X68731205Y-8034505D01*
X68730001Y-8010001D01*
X68730001Y-6760001D01*
X68731205Y-6735497D01*
X68734805Y-6711228D01*
X68740766Y-6687430D01*
X68749031Y-6664330D01*
X68759521Y-6642152D01*
X68772134Y-6621108D01*
X68786748Y-6601403D01*
X68803224Y-6583224D01*
X68821403Y-6566748D01*
X68841108Y-6552134D01*
X68862152Y-6539521D01*
X68884330Y-6529031D01*
X68907430Y-6520766D01*
X68931228Y-6514805D01*
X68955497Y-6511205D01*
X68980001Y-6510001D01*
X69730001Y-6510001D01*
X69754505Y-6511205D01*
X69754505Y-6511205D01*
G37*
D13*
X69355001Y-7385001D03*
D12*
G36*
X72399504Y4273796D02*
G01*
X72423773Y4270196D01*
X72447571Y4264235D01*
X72470671Y4255970D01*
X72492849Y4245480D01*
X72513893Y4232867D01*
X72533598Y4218253D01*
X72551777Y4201777D01*
X72568253Y4183598D01*
X72582867Y4163893D01*
X72595480Y4142849D01*
X72605970Y4120671D01*
X72614235Y4097571D01*
X72620196Y4073773D01*
X72623796Y4049504D01*
X72625000Y4025000D01*
X72625000Y2775000D01*
X72623796Y2750496D01*
X72620196Y2726227D01*
X72614235Y2702429D01*
X72605970Y2679329D01*
X72595480Y2657151D01*
X72582867Y2636107D01*
X72568253Y2616402D01*
X72551777Y2598223D01*
X72533598Y2581747D01*
X72513893Y2567133D01*
X72492849Y2554520D01*
X72470671Y2544030D01*
X72447571Y2535765D01*
X72423773Y2529804D01*
X72399504Y2526204D01*
X72375000Y2525000D01*
X71625000Y2525000D01*
X71600496Y2526204D01*
X71576227Y2529804D01*
X71552429Y2535765D01*
X71529329Y2544030D01*
X71507151Y2554520D01*
X71486107Y2567133D01*
X71466402Y2581747D01*
X71448223Y2598223D01*
X71431747Y2616402D01*
X71417133Y2636107D01*
X71404520Y2657151D01*
X71394030Y2679329D01*
X71385765Y2702429D01*
X71379804Y2726227D01*
X71376204Y2750496D01*
X71375000Y2775000D01*
X71375000Y4025000D01*
X71376204Y4049504D01*
X71379804Y4073773D01*
X71385765Y4097571D01*
X71394030Y4120671D01*
X71404520Y4142849D01*
X71417133Y4163893D01*
X71431747Y4183598D01*
X71448223Y4201777D01*
X71466402Y4218253D01*
X71486107Y4232867D01*
X71507151Y4245480D01*
X71529329Y4255970D01*
X71552429Y4264235D01*
X71576227Y4270196D01*
X71600496Y4273796D01*
X71625000Y4275000D01*
X72375000Y4275000D01*
X72399504Y4273796D01*
X72399504Y4273796D01*
G37*
D13*
X72000000Y3400000D03*
D12*
G36*
X69599504Y4273796D02*
G01*
X69623773Y4270196D01*
X69647571Y4264235D01*
X69670671Y4255970D01*
X69692849Y4245480D01*
X69713893Y4232867D01*
X69733598Y4218253D01*
X69751777Y4201777D01*
X69768253Y4183598D01*
X69782867Y4163893D01*
X69795480Y4142849D01*
X69805970Y4120671D01*
X69814235Y4097571D01*
X69820196Y4073773D01*
X69823796Y4049504D01*
X69825000Y4025000D01*
X69825000Y2775000D01*
X69823796Y2750496D01*
X69820196Y2726227D01*
X69814235Y2702429D01*
X69805970Y2679329D01*
X69795480Y2657151D01*
X69782867Y2636107D01*
X69768253Y2616402D01*
X69751777Y2598223D01*
X69733598Y2581747D01*
X69713893Y2567133D01*
X69692849Y2554520D01*
X69670671Y2544030D01*
X69647571Y2535765D01*
X69623773Y2529804D01*
X69599504Y2526204D01*
X69575000Y2525000D01*
X68825000Y2525000D01*
X68800496Y2526204D01*
X68776227Y2529804D01*
X68752429Y2535765D01*
X68729329Y2544030D01*
X68707151Y2554520D01*
X68686107Y2567133D01*
X68666402Y2581747D01*
X68648223Y2598223D01*
X68631747Y2616402D01*
X68617133Y2636107D01*
X68604520Y2657151D01*
X68594030Y2679329D01*
X68585765Y2702429D01*
X68579804Y2726227D01*
X68576204Y2750496D01*
X68575000Y2775000D01*
X68575000Y4025000D01*
X68576204Y4049504D01*
X68579804Y4073773D01*
X68585765Y4097571D01*
X68594030Y4120671D01*
X68604520Y4142849D01*
X68617133Y4163893D01*
X68631747Y4183598D01*
X68648223Y4201777D01*
X68666402Y4218253D01*
X68686107Y4232867D01*
X68707151Y4245480D01*
X68729329Y4255970D01*
X68752429Y4264235D01*
X68776227Y4270196D01*
X68800496Y4273796D01*
X68825000Y4275000D01*
X69575000Y4275000D01*
X69599504Y4273796D01*
X69599504Y4273796D01*
G37*
D13*
X69200000Y3400000D03*
D12*
G36*
X72554505Y-3221205D02*
G01*
X72578774Y-3224805D01*
X72602572Y-3230766D01*
X72625672Y-3239031D01*
X72647850Y-3249521D01*
X72668894Y-3262134D01*
X72688599Y-3276748D01*
X72706778Y-3293224D01*
X72723254Y-3311403D01*
X72737868Y-3331108D01*
X72750481Y-3352152D01*
X72760971Y-3374330D01*
X72769236Y-3397430D01*
X72775197Y-3421228D01*
X72778797Y-3445497D01*
X72780001Y-3470001D01*
X72780001Y-4720001D01*
X72778797Y-4744505D01*
X72775197Y-4768774D01*
X72769236Y-4792572D01*
X72760971Y-4815672D01*
X72750481Y-4837850D01*
X72737868Y-4858894D01*
X72723254Y-4878599D01*
X72706778Y-4896778D01*
X72688599Y-4913254D01*
X72668894Y-4927868D01*
X72647850Y-4940481D01*
X72625672Y-4950971D01*
X72602572Y-4959236D01*
X72578774Y-4965197D01*
X72554505Y-4968797D01*
X72530001Y-4970001D01*
X71780001Y-4970001D01*
X71755497Y-4968797D01*
X71731228Y-4965197D01*
X71707430Y-4959236D01*
X71684330Y-4950971D01*
X71662152Y-4940481D01*
X71641108Y-4927868D01*
X71621403Y-4913254D01*
X71603224Y-4896778D01*
X71586748Y-4878599D01*
X71572134Y-4858894D01*
X71559521Y-4837850D01*
X71549031Y-4815672D01*
X71540766Y-4792572D01*
X71534805Y-4768774D01*
X71531205Y-4744505D01*
X71530001Y-4720001D01*
X71530001Y-3470001D01*
X71531205Y-3445497D01*
X71534805Y-3421228D01*
X71540766Y-3397430D01*
X71549031Y-3374330D01*
X71559521Y-3352152D01*
X71572134Y-3331108D01*
X71586748Y-3311403D01*
X71603224Y-3293224D01*
X71621403Y-3276748D01*
X71641108Y-3262134D01*
X71662152Y-3249521D01*
X71684330Y-3239031D01*
X71707430Y-3230766D01*
X71731228Y-3224805D01*
X71755497Y-3221205D01*
X71780001Y-3220001D01*
X72530001Y-3220001D01*
X72554505Y-3221205D01*
X72554505Y-3221205D01*
G37*
D13*
X72155001Y-4095001D03*
D12*
G36*
X69754505Y-3221205D02*
G01*
X69778774Y-3224805D01*
X69802572Y-3230766D01*
X69825672Y-3239031D01*
X69847850Y-3249521D01*
X69868894Y-3262134D01*
X69888599Y-3276748D01*
X69906778Y-3293224D01*
X69923254Y-3311403D01*
X69937868Y-3331108D01*
X69950481Y-3352152D01*
X69960971Y-3374330D01*
X69969236Y-3397430D01*
X69975197Y-3421228D01*
X69978797Y-3445497D01*
X69980001Y-3470001D01*
X69980001Y-4720001D01*
X69978797Y-4744505D01*
X69975197Y-4768774D01*
X69969236Y-4792572D01*
X69960971Y-4815672D01*
X69950481Y-4837850D01*
X69937868Y-4858894D01*
X69923254Y-4878599D01*
X69906778Y-4896778D01*
X69888599Y-4913254D01*
X69868894Y-4927868D01*
X69847850Y-4940481D01*
X69825672Y-4950971D01*
X69802572Y-4959236D01*
X69778774Y-4965197D01*
X69754505Y-4968797D01*
X69730001Y-4970001D01*
X68980001Y-4970001D01*
X68955497Y-4968797D01*
X68931228Y-4965197D01*
X68907430Y-4959236D01*
X68884330Y-4950971D01*
X68862152Y-4940481D01*
X68841108Y-4927868D01*
X68821403Y-4913254D01*
X68803224Y-4896778D01*
X68786748Y-4878599D01*
X68772134Y-4858894D01*
X68759521Y-4837850D01*
X68749031Y-4815672D01*
X68740766Y-4792572D01*
X68734805Y-4768774D01*
X68731205Y-4744505D01*
X68730001Y-4720001D01*
X68730001Y-3470001D01*
X68731205Y-3445497D01*
X68734805Y-3421228D01*
X68740766Y-3397430D01*
X68749031Y-3374330D01*
X68759521Y-3352152D01*
X68772134Y-3331108D01*
X68786748Y-3311403D01*
X68803224Y-3293224D01*
X68821403Y-3276748D01*
X68841108Y-3262134D01*
X68862152Y-3249521D01*
X68884330Y-3239031D01*
X68907430Y-3230766D01*
X68931228Y-3224805D01*
X68955497Y-3221205D01*
X68980001Y-3220001D01*
X69730001Y-3220001D01*
X69754505Y-3221205D01*
X69754505Y-3221205D01*
G37*
D13*
X69355001Y-4095001D03*
D12*
G36*
X84249504Y-6776204D02*
G01*
X84273773Y-6779804D01*
X84297571Y-6785765D01*
X84320671Y-6794030D01*
X84342849Y-6804520D01*
X84363893Y-6817133D01*
X84383598Y-6831747D01*
X84401777Y-6848223D01*
X84418253Y-6866402D01*
X84432867Y-6886107D01*
X84445480Y-6907151D01*
X84455970Y-6929329D01*
X84464235Y-6952429D01*
X84470196Y-6976227D01*
X84473796Y-7000496D01*
X84475000Y-7025000D01*
X84475000Y-7775000D01*
X84473796Y-7799504D01*
X84470196Y-7823773D01*
X84464235Y-7847571D01*
X84455970Y-7870671D01*
X84445480Y-7892849D01*
X84432867Y-7913893D01*
X84418253Y-7933598D01*
X84401777Y-7951777D01*
X84383598Y-7968253D01*
X84363893Y-7982867D01*
X84342849Y-7995480D01*
X84320671Y-8005970D01*
X84297571Y-8014235D01*
X84273773Y-8020196D01*
X84249504Y-8023796D01*
X84225000Y-8025000D01*
X82975000Y-8025000D01*
X82950496Y-8023796D01*
X82926227Y-8020196D01*
X82902429Y-8014235D01*
X82879329Y-8005970D01*
X82857151Y-7995480D01*
X82836107Y-7982867D01*
X82816402Y-7968253D01*
X82798223Y-7951777D01*
X82781747Y-7933598D01*
X82767133Y-7913893D01*
X82754520Y-7892849D01*
X82744030Y-7870671D01*
X82735765Y-7847571D01*
X82729804Y-7823773D01*
X82726204Y-7799504D01*
X82725000Y-7775000D01*
X82725000Y-7025000D01*
X82726204Y-7000496D01*
X82729804Y-6976227D01*
X82735765Y-6952429D01*
X82744030Y-6929329D01*
X82754520Y-6907151D01*
X82767133Y-6886107D01*
X82781747Y-6866402D01*
X82798223Y-6848223D01*
X82816402Y-6831747D01*
X82836107Y-6817133D01*
X82857151Y-6804520D01*
X82879329Y-6794030D01*
X82902429Y-6785765D01*
X82926227Y-6779804D01*
X82950496Y-6776204D01*
X82975000Y-6775000D01*
X84225000Y-6775000D01*
X84249504Y-6776204D01*
X84249504Y-6776204D01*
G37*
D13*
X83600000Y-7400000D03*
D12*
G36*
X84249504Y-3976204D02*
G01*
X84273773Y-3979804D01*
X84297571Y-3985765D01*
X84320671Y-3994030D01*
X84342849Y-4004520D01*
X84363893Y-4017133D01*
X84383598Y-4031747D01*
X84401777Y-4048223D01*
X84418253Y-4066402D01*
X84432867Y-4086107D01*
X84445480Y-4107151D01*
X84455970Y-4129329D01*
X84464235Y-4152429D01*
X84470196Y-4176227D01*
X84473796Y-4200496D01*
X84475000Y-4225000D01*
X84475000Y-4975000D01*
X84473796Y-4999504D01*
X84470196Y-5023773D01*
X84464235Y-5047571D01*
X84455970Y-5070671D01*
X84445480Y-5092849D01*
X84432867Y-5113893D01*
X84418253Y-5133598D01*
X84401777Y-5151777D01*
X84383598Y-5168253D01*
X84363893Y-5182867D01*
X84342849Y-5195480D01*
X84320671Y-5205970D01*
X84297571Y-5214235D01*
X84273773Y-5220196D01*
X84249504Y-5223796D01*
X84225000Y-5225000D01*
X82975000Y-5225000D01*
X82950496Y-5223796D01*
X82926227Y-5220196D01*
X82902429Y-5214235D01*
X82879329Y-5205970D01*
X82857151Y-5195480D01*
X82836107Y-5182867D01*
X82816402Y-5168253D01*
X82798223Y-5151777D01*
X82781747Y-5133598D01*
X82767133Y-5113893D01*
X82754520Y-5092849D01*
X82744030Y-5070671D01*
X82735765Y-5047571D01*
X82729804Y-5023773D01*
X82726204Y-4999504D01*
X82725000Y-4975000D01*
X82725000Y-4225000D01*
X82726204Y-4200496D01*
X82729804Y-4176227D01*
X82735765Y-4152429D01*
X82744030Y-4129329D01*
X82754520Y-4107151D01*
X82767133Y-4086107D01*
X82781747Y-4066402D01*
X82798223Y-4048223D01*
X82816402Y-4031747D01*
X82836107Y-4017133D01*
X82857151Y-4004520D01*
X82879329Y-3994030D01*
X82902429Y-3985765D01*
X82926227Y-3979804D01*
X82950496Y-3976204D01*
X82975000Y-3975000D01*
X84225000Y-3975000D01*
X84249504Y-3976204D01*
X84249504Y-3976204D01*
G37*
D13*
X83600000Y-4600000D03*
D14*
X74380000Y6800000D03*
X71840000Y6800000D03*
D15*
X69300000Y6800000D03*
D16*
X73400000Y-11600000D03*
X69400000Y-11600000D03*
X83600000Y-11600000D03*
X79600000Y-11600000D03*
X85000000Y12000000D03*
X81000000Y12000000D03*
D17*
X77600000Y-4460000D03*
D18*
X77600000Y-7000000D03*
X93800000Y-3800000D03*
D17*
X88800000Y-3800000D03*
D18*
X85400000Y3600000D03*
D17*
X80400000Y3600000D03*
D19*
X80400000Y1584000D02*
X80400000Y3600000D01*
X88800000Y-3800000D02*
X85784000Y-3800000D01*
X85784000Y-3800000D02*
X80400000Y1584000D01*
X77600000Y-9600000D02*
X79600000Y-11600000D01*
X77600000Y-7000000D02*
X77600000Y-9600000D01*
X77600000Y-9666000D02*
X77600000Y-9600000D01*
X75666000Y-11600000D02*
X77600000Y-9666000D01*
X73400000Y-11600000D02*
X75666000Y-11600000D01*
X77600000Y-6800000D02*
X78050999Y-6349001D01*
X77600000Y-7000000D02*
X77600000Y-6800000D01*
X77600000Y-6400000D02*
X77549002Y-6349002D01*
X77600000Y-7000000D02*
X77600000Y-6400000D01*
X77200000Y6800000D02*
X80400000Y3600000D01*
X74380000Y6800000D02*
X77200000Y6800000D01*
X78384000Y3600000D02*
X80400000Y3600000D01*
X75710999Y926999D02*
X78384000Y3600000D01*
X75710999Y-6525212D02*
X75710999Y926999D01*
X76185787Y-7000000D02*
X75710999Y-6525212D01*
X77600000Y-7000000D02*
X76185787Y-7000000D01*
X77600000Y-4460000D02*
X77600000Y-4951992D01*
X83460000Y-4460000D02*
X83600000Y-4600000D01*
X77600000Y-4460000D02*
X83460000Y-4460000D01*
X72155001Y-7385001D02*
X72155001Y-4095001D01*
X72155001Y-505001D02*
X72000000Y-350000D01*
X72155001Y-4095001D02*
X72155001Y-505001D01*
X72000000Y-350000D02*
X72000000Y3400000D01*
X72000000Y6640000D02*
X71840000Y6800000D01*
X72000000Y3400000D02*
X72000000Y6640000D01*
X78734000Y12000000D02*
X81000000Y12000000D01*
X76928212Y12000000D02*
X78734000Y12000000D01*
X71840000Y6911788D02*
X76928212Y12000000D01*
X71840000Y6800000D02*
X71840000Y6911788D01*
X83900000Y-11900000D02*
X83600000Y-11600000D01*
X83900000Y-18900000D02*
X83900000Y-11900000D01*
X83600000Y-11600000D02*
X83600000Y-7400000D01*
X90200000Y-7400000D02*
X93800000Y-3800000D01*
X83600000Y-7400000D02*
X90200000Y-7400000D01*
X86400000Y3600000D02*
X85400000Y3600000D01*
X93800000Y-3800000D02*
X86400000Y3600000D01*
X78900000Y-18900000D02*
X113900000Y-18900000D01*
X115400000Y-15400000D02*
X118900000Y-18900000D01*
X88200000Y12000000D02*
X100800000Y-600000D01*
X85000000Y12000000D02*
X88200000Y12000000D01*
X100800000Y-600000D02*
X100800000Y-11800000D01*
X100800000Y-11800000D02*
X104400000Y-15400000D01*
X104400000Y-15400000D02*
X115400000Y-15400000D01*
X68900000Y-12100000D02*
X69400000Y-11600000D01*
X68900000Y-18900000D02*
X68900000Y-12100000D01*
X43900000Y-18900000D02*
X48900000Y-18900000D01*
X48900000Y-18900000D02*
X53900000Y-18900000D01*
X53900000Y-18900000D02*
X58900000Y-18900000D01*
X58900000Y-18900000D02*
X63900000Y-18900000D01*
X63900000Y-18900000D02*
X68900000Y-18900000D01*
X68900000Y-18900000D02*
X73900000Y-18900000D01*
X69400000Y-7430000D02*
X69355001Y-7385001D01*
X69400000Y-11600000D02*
X69400000Y-7430000D01*
X69355001Y-7385001D02*
X69355001Y-4095001D01*
X69355001Y-505001D02*
X69200000Y-350000D01*
X69355001Y-4095001D02*
X69355001Y-505001D01*
X69200000Y-350000D02*
X69200000Y3400000D01*
X69200000Y6700000D02*
X69300000Y6800000D01*
X69200000Y3400000D02*
X69200000Y6700000D01*
X116300000Y19200000D02*
X116300000Y44200000D01*
X116300000Y-10800000D02*
X116300000Y14200000D01*
X46400000Y14200000D02*
X46400000Y-10800000D01*
X46400000Y44200000D02*
X46400000Y19200000D01*
X78900000Y52300000D02*
X43900000Y52300000D01*
X118900000Y52300000D02*
X83900000Y52300000D01*
M02*
