G04 #@! TF.GenerationSoftware,KiCad,Pcbnew,5.1.4*
G04 #@! TF.CreationDate,2020-01-07T14:28:49-05:00*
G04 #@! TF.ProjectId,model-train-cdu,6d6f6465-6c2d-4747-9261-696e2d636475,rev?*
G04 #@! TF.SameCoordinates,Original*
G04 #@! TF.FileFunction,Legend,Top*
G04 #@! TF.FilePolarity,Positive*
%FSLAX46Y46*%
G04 Gerber Fmt 4.6, Leading zero omitted, Abs format (unit mm)*
G04 Created by KiCad (PCBNEW 5.1.4) date 2020-01-07 14:28:49*
%MOMM*%
%LPD*%
G04 APERTURE LIST*
%ADD10C,0.200000*%
%ADD11C,0.120000*%
%ADD12C,0.100000*%
%ADD13C,0.150000*%
G04 APERTURE END LIST*
D10*
X73142857Y39095238D02*
X73142857Y37666666D01*
X73047619Y37380952D01*
X72857142Y37190476D01*
X72571428Y37095238D01*
X72380952Y37095238D01*
X74000000Y37666666D02*
X74952380Y37666666D01*
X73809523Y37095238D02*
X74476190Y39095238D01*
X75142857Y37095238D01*
X76476190Y38142857D02*
X76761904Y38047619D01*
X76857142Y37952380D01*
X76952380Y37761904D01*
X76952380Y37476190D01*
X76857142Y37285714D01*
X76761904Y37190476D01*
X76571428Y37095238D01*
X75809523Y37095238D01*
X75809523Y39095238D01*
X76476190Y39095238D01*
X76666666Y39000000D01*
X76761904Y38904761D01*
X76857142Y38714285D01*
X76857142Y38523809D01*
X76761904Y38333333D01*
X76666666Y38238095D01*
X76476190Y38142857D01*
X75809523Y38142857D01*
X80476190Y37285714D02*
X80380952Y37190476D01*
X80095238Y37095238D01*
X79904761Y37095238D01*
X79619047Y37190476D01*
X79428571Y37380952D01*
X79333333Y37571428D01*
X79238095Y37952380D01*
X79238095Y38238095D01*
X79333333Y38619047D01*
X79428571Y38809523D01*
X79619047Y39000000D01*
X79904761Y39095238D01*
X80095238Y39095238D01*
X80380952Y39000000D01*
X80476190Y38904761D01*
X81333333Y37095238D02*
X81333333Y39095238D01*
X81809523Y39095238D01*
X82095238Y39000000D01*
X82285714Y38809523D01*
X82380952Y38619047D01*
X82476190Y38238095D01*
X82476190Y37952380D01*
X82380952Y37571428D01*
X82285714Y37380952D01*
X82095238Y37190476D01*
X81809523Y37095238D01*
X81333333Y37095238D01*
X83333333Y39095238D02*
X83333333Y37476190D01*
X83428571Y37285714D01*
X83523809Y37190476D01*
X83714285Y37095238D01*
X84095238Y37095238D01*
X84285714Y37190476D01*
X84380952Y37285714D01*
X84476190Y37476190D01*
X84476190Y39095238D01*
X86761904Y38428571D02*
X87238095Y37095238D01*
X87714285Y38428571D01*
X89523809Y37095238D02*
X88380952Y37095238D01*
X88952380Y37095238D02*
X88952380Y39095238D01*
X88761904Y38809523D01*
X88571428Y38619047D01*
X88380952Y38523809D01*
D11*
X41100000Y47000000D02*
X41100000Y46600000D01*
X41740000Y47000000D02*
X41100000Y47000000D01*
X45408000Y-9542000D02*
X45012000Y-9147000D01*
X48054000Y-12188000D02*
X47674000Y-11808000D01*
X45126000Y-9793000D02*
X44746000Y-9413000D01*
X47788000Y-12454000D02*
X47392000Y-12059000D01*
X45408000Y-4542000D02*
X45012000Y-4147000D01*
X48054000Y-7188000D02*
X47674000Y-6808000D01*
X45126000Y-4793000D02*
X44746000Y-4413000D01*
X47788000Y-7454000D02*
X47392000Y-7059000D01*
X45408000Y458000D02*
X45012000Y853000D01*
X48054000Y-2188000D02*
X47674000Y-1808000D01*
X45126000Y207000D02*
X44746000Y587000D01*
X47788000Y-2454000D02*
X47392000Y-2059000D01*
X45408000Y5458000D02*
X45012000Y5853000D01*
X48054000Y2812000D02*
X47674000Y3192000D01*
X45126000Y5207000D02*
X44746000Y5587000D01*
X47788000Y2546000D02*
X47392000Y2941000D01*
X45408000Y10458000D02*
X45012000Y10853000D01*
X48054000Y7812000D02*
X47674000Y8192000D01*
X45126000Y10207000D02*
X44746000Y10587000D01*
X47788000Y7546000D02*
X47392000Y7941000D01*
X45408000Y15458000D02*
X45012000Y15853000D01*
X48054000Y12812000D02*
X47674000Y13192000D01*
X45126000Y15207000D02*
X44746000Y15587000D01*
X47788000Y12546000D02*
X47392000Y12941000D01*
X45408000Y20458000D02*
X45012000Y20853000D01*
X48054000Y17812000D02*
X47674000Y18192000D01*
X45126000Y20207000D02*
X44746000Y20587000D01*
X47788000Y17546000D02*
X47392000Y17941000D01*
X45408000Y25458000D02*
X45012000Y25853000D01*
X48054000Y22812000D02*
X47674000Y23192000D01*
X45126000Y25207000D02*
X44746000Y25587000D01*
X47788000Y22546000D02*
X47392000Y22941000D01*
X45408000Y30458000D02*
X45012000Y30853000D01*
X48054000Y27812000D02*
X47674000Y28192000D01*
X45126000Y30207000D02*
X44746000Y30587000D01*
X47788000Y27546000D02*
X47392000Y27941000D01*
X45408000Y35458000D02*
X45012000Y35853000D01*
X48054000Y32812000D02*
X47674000Y33192000D01*
X45126000Y35207000D02*
X44746000Y35587000D01*
X47788000Y32546000D02*
X47392000Y32941000D01*
X45408000Y40458000D02*
X45012000Y40853000D01*
X48054000Y37812000D02*
X47674000Y38192000D01*
X45126000Y40207000D02*
X44746000Y40587000D01*
X47788000Y37546000D02*
X47392000Y37941000D01*
X45119000Y45748000D02*
X45012000Y45854000D01*
X48054000Y42812000D02*
X47947000Y42919000D01*
X44853000Y45482000D02*
X44746000Y45588000D01*
X47788000Y42546000D02*
X47681000Y42653000D01*
X50460000Y-13360000D02*
X41340000Y-13360000D01*
X50460000Y46760000D02*
X41340000Y46760000D01*
X41340000Y46760000D02*
X41340000Y-13360000D01*
X50460000Y46760000D02*
X50460000Y-13360000D01*
X42900000Y46760000D02*
X42900000Y-13360000D01*
X41800000Y46760000D02*
X41800000Y-13360000D01*
X48580000Y-10800000D02*
G75*
G03X48580000Y-10800000I-2180000J0D01*
G01*
X48580000Y-5800000D02*
G75*
G03X48580000Y-5800000I-2180000J0D01*
G01*
X48580000Y-800000D02*
G75*
G03X48580000Y-800000I-2180000J0D01*
G01*
X48580000Y4200000D02*
G75*
G03X48580000Y4200000I-2180000J0D01*
G01*
X48580000Y9200000D02*
G75*
G03X48580000Y9200000I-2180000J0D01*
G01*
X48580000Y14200000D02*
G75*
G03X48580000Y14200000I-2180000J0D01*
G01*
X48580000Y19200000D02*
G75*
G03X48580000Y19200000I-2180000J0D01*
G01*
X48580000Y24200000D02*
G75*
G03X48580000Y24200000I-2180000J0D01*
G01*
X48580000Y29200000D02*
G75*
G03X48580000Y29200000I-2180000J0D01*
G01*
X48580000Y34200000D02*
G75*
G03X48580000Y34200000I-2180000J0D01*
G01*
X48580000Y39200000D02*
G75*
G03X48580000Y39200000I-2180000J0D01*
G01*
X48580000Y44200000D02*
G75*
G03X48580000Y44200000I-2180000J0D01*
G01*
X121600000Y-13600000D02*
X121600000Y-13200000D01*
X120960000Y-13600000D02*
X121600000Y-13600000D01*
X117292000Y42942000D02*
X117688000Y42547000D01*
X114646000Y45588000D02*
X115026000Y45208000D01*
X117574000Y43193000D02*
X117954000Y42813000D01*
X114912000Y45854000D02*
X115308000Y45459000D01*
X117292000Y37942000D02*
X117688000Y37547000D01*
X114646000Y40588000D02*
X115026000Y40208000D01*
X117574000Y38193000D02*
X117954000Y37813000D01*
X114912000Y40854000D02*
X115308000Y40459000D01*
X117292000Y32942000D02*
X117688000Y32547000D01*
X114646000Y35588000D02*
X115026000Y35208000D01*
X117574000Y33193000D02*
X117954000Y32813000D01*
X114912000Y35854000D02*
X115308000Y35459000D01*
X117292000Y27942000D02*
X117688000Y27547000D01*
X114646000Y30588000D02*
X115026000Y30208000D01*
X117574000Y28193000D02*
X117954000Y27813000D01*
X114912000Y30854000D02*
X115308000Y30459000D01*
X117292000Y22942000D02*
X117688000Y22547000D01*
X114646000Y25588000D02*
X115026000Y25208000D01*
X117574000Y23193000D02*
X117954000Y22813000D01*
X114912000Y25854000D02*
X115308000Y25459000D01*
X117292000Y17942000D02*
X117688000Y17547000D01*
X114646000Y20588000D02*
X115026000Y20208000D01*
X117574000Y18193000D02*
X117954000Y17813000D01*
X114912000Y20854000D02*
X115308000Y20459000D01*
X117292000Y12942000D02*
X117688000Y12547000D01*
X114646000Y15588000D02*
X115026000Y15208000D01*
X117574000Y13193000D02*
X117954000Y12813000D01*
X114912000Y15854000D02*
X115308000Y15459000D01*
X117292000Y7942000D02*
X117688000Y7547000D01*
X114646000Y10588000D02*
X115026000Y10208000D01*
X117574000Y8193000D02*
X117954000Y7813000D01*
X114912000Y10854000D02*
X115308000Y10459000D01*
X117292000Y2942000D02*
X117688000Y2547000D01*
X114646000Y5588000D02*
X115026000Y5208000D01*
X117574000Y3193000D02*
X117954000Y2813000D01*
X114912000Y5854000D02*
X115308000Y5459000D01*
X117292000Y-2058000D02*
X117688000Y-2453000D01*
X114646000Y588000D02*
X115026000Y208000D01*
X117574000Y-1807000D02*
X117954000Y-2187000D01*
X114912000Y854000D02*
X115308000Y459000D01*
X117292000Y-7058000D02*
X117688000Y-7453000D01*
X114646000Y-4412000D02*
X115026000Y-4792000D01*
X117574000Y-6807000D02*
X117954000Y-7187000D01*
X114912000Y-4146000D02*
X115308000Y-4541000D01*
X117581000Y-12348000D02*
X117688000Y-12454000D01*
X114646000Y-9412000D02*
X114753000Y-9519000D01*
X117847000Y-12082000D02*
X117954000Y-12188000D01*
X114912000Y-9146000D02*
X115019000Y-9253000D01*
X112240000Y46760000D02*
X121360000Y46760000D01*
X112240000Y-13360000D02*
X121360000Y-13360000D01*
X121360000Y-13360000D02*
X121360000Y46760000D01*
X112240000Y-13360000D02*
X112240000Y46760000D01*
X119800000Y-13360000D02*
X119800000Y46760000D01*
X120900000Y-13360000D02*
X120900000Y46760000D01*
X118480000Y44200000D02*
G75*
G03X118480000Y44200000I-2180000J0D01*
G01*
X118480000Y39200000D02*
G75*
G03X118480000Y39200000I-2180000J0D01*
G01*
X118480000Y34200000D02*
G75*
G03X118480000Y34200000I-2180000J0D01*
G01*
X118480000Y29200000D02*
G75*
G03X118480000Y29200000I-2180000J0D01*
G01*
X118480000Y24200000D02*
G75*
G03X118480000Y24200000I-2180000J0D01*
G01*
X118480000Y19200000D02*
G75*
G03X118480000Y19200000I-2180000J0D01*
G01*
X118480000Y14200000D02*
G75*
G03X118480000Y14200000I-2180000J0D01*
G01*
X118480000Y9200000D02*
G75*
G03X118480000Y9200000I-2180000J0D01*
G01*
X118480000Y4200000D02*
G75*
G03X118480000Y4200000I-2180000J0D01*
G01*
X118480000Y-800000D02*
G75*
G03X118480000Y-800000I-2180000J0D01*
G01*
X118480000Y-5800000D02*
G75*
G03X118480000Y-5800000I-2180000J0D01*
G01*
X118480000Y-10800000D02*
G75*
G03X118480000Y-10800000I-2180000J0D01*
G01*
X121700000Y57600000D02*
X121300000Y57600000D01*
X121700000Y56960000D02*
X121700000Y57600000D01*
X45158000Y53292000D02*
X45553000Y53688000D01*
X42512000Y50646000D02*
X42892000Y51026000D01*
X44907000Y53574000D02*
X45287000Y53954000D01*
X42246000Y50912000D02*
X42641000Y51308000D01*
X50158000Y53292000D02*
X50553000Y53688000D01*
X47512000Y50646000D02*
X47892000Y51026000D01*
X49907000Y53574000D02*
X50287000Y53954000D01*
X47246000Y50912000D02*
X47641000Y51308000D01*
X55158000Y53292000D02*
X55553000Y53688000D01*
X52512000Y50646000D02*
X52892000Y51026000D01*
X54907000Y53574000D02*
X55287000Y53954000D01*
X52246000Y50912000D02*
X52641000Y51308000D01*
X60158000Y53292000D02*
X60553000Y53688000D01*
X57512000Y50646000D02*
X57892000Y51026000D01*
X59907000Y53574000D02*
X60287000Y53954000D01*
X57246000Y50912000D02*
X57641000Y51308000D01*
X65158000Y53292000D02*
X65553000Y53688000D01*
X62512000Y50646000D02*
X62892000Y51026000D01*
X64907000Y53574000D02*
X65287000Y53954000D01*
X62246000Y50912000D02*
X62641000Y51308000D01*
X70158000Y53292000D02*
X70553000Y53688000D01*
X67512000Y50646000D02*
X67892000Y51026000D01*
X69907000Y53574000D02*
X70287000Y53954000D01*
X67246000Y50912000D02*
X67641000Y51308000D01*
X75158000Y53292000D02*
X75553000Y53688000D01*
X72512000Y50646000D02*
X72892000Y51026000D01*
X74907000Y53574000D02*
X75287000Y53954000D01*
X72246000Y50912000D02*
X72641000Y51308000D01*
X80158000Y53292000D02*
X80553000Y53688000D01*
X77512000Y50646000D02*
X77892000Y51026000D01*
X79907000Y53574000D02*
X80287000Y53954000D01*
X77246000Y50912000D02*
X77641000Y51308000D01*
X85158000Y53292000D02*
X85553000Y53688000D01*
X82512000Y50646000D02*
X82892000Y51026000D01*
X84907000Y53574000D02*
X85287000Y53954000D01*
X82246000Y50912000D02*
X82641000Y51308000D01*
X90158000Y53292000D02*
X90553000Y53688000D01*
X87512000Y50646000D02*
X87892000Y51026000D01*
X89907000Y53574000D02*
X90287000Y53954000D01*
X87246000Y50912000D02*
X87641000Y51308000D01*
X95158000Y53292000D02*
X95553000Y53688000D01*
X92512000Y50646000D02*
X92892000Y51026000D01*
X94907000Y53574000D02*
X95287000Y53954000D01*
X92246000Y50912000D02*
X92641000Y51308000D01*
X100158000Y53292000D02*
X100553000Y53688000D01*
X97512000Y50646000D02*
X97892000Y51026000D01*
X99907000Y53574000D02*
X100287000Y53954000D01*
X97246000Y50912000D02*
X97641000Y51308000D01*
X105158000Y53292000D02*
X105553000Y53688000D01*
X102512000Y50646000D02*
X102892000Y51026000D01*
X104907000Y53574000D02*
X105287000Y53954000D01*
X102246000Y50912000D02*
X102641000Y51308000D01*
X110158000Y53292000D02*
X110553000Y53688000D01*
X107512000Y50646000D02*
X107892000Y51026000D01*
X109907000Y53574000D02*
X110287000Y53954000D01*
X107246000Y50912000D02*
X107641000Y51308000D01*
X115158000Y53292000D02*
X115553000Y53688000D01*
X112512000Y50646000D02*
X112892000Y51026000D01*
X114907000Y53574000D02*
X115287000Y53954000D01*
X112246000Y50912000D02*
X112641000Y51308000D01*
X120448000Y53581000D02*
X120554000Y53688000D01*
X117512000Y50646000D02*
X117619000Y50753000D01*
X120182000Y53847000D02*
X120288000Y53954000D01*
X117246000Y50912000D02*
X117353000Y51019000D01*
X41340000Y48240000D02*
X41340000Y57360000D01*
X121460000Y48240000D02*
X121460000Y57360000D01*
X121460000Y57360000D02*
X41340000Y57360000D01*
X121460000Y48240000D02*
X41340000Y48240000D01*
X121460000Y55800000D02*
X41340000Y55800000D01*
X121460000Y56900000D02*
X41340000Y56900000D01*
X46080000Y52300000D02*
G75*
G03X46080000Y52300000I-2180000J0D01*
G01*
X51080000Y52300000D02*
G75*
G03X51080000Y52300000I-2180000J0D01*
G01*
X56080000Y52300000D02*
G75*
G03X56080000Y52300000I-2180000J0D01*
G01*
X61080000Y52300000D02*
G75*
G03X61080000Y52300000I-2180000J0D01*
G01*
X66080000Y52300000D02*
G75*
G03X66080000Y52300000I-2180000J0D01*
G01*
X71080000Y52300000D02*
G75*
G03X71080000Y52300000I-2180000J0D01*
G01*
X76080000Y52300000D02*
G75*
G03X76080000Y52300000I-2180000J0D01*
G01*
X81080000Y52300000D02*
G75*
G03X81080000Y52300000I-2180000J0D01*
G01*
X86080000Y52300000D02*
G75*
G03X86080000Y52300000I-2180000J0D01*
G01*
X91080000Y52300000D02*
G75*
G03X91080000Y52300000I-2180000J0D01*
G01*
X96080000Y52300000D02*
G75*
G03X96080000Y52300000I-2180000J0D01*
G01*
X101080000Y52300000D02*
G75*
G03X101080000Y52300000I-2180000J0D01*
G01*
X106080000Y52300000D02*
G75*
G03X106080000Y52300000I-2180000J0D01*
G01*
X111080000Y52300000D02*
G75*
G03X111080000Y52300000I-2180000J0D01*
G01*
X116080000Y52300000D02*
G75*
G03X116080000Y52300000I-2180000J0D01*
G01*
X121080000Y52300000D02*
G75*
G03X121080000Y52300000I-2180000J0D01*
G01*
X41100000Y-24200000D02*
X41500000Y-24200000D01*
X41100000Y-23560000D02*
X41100000Y-24200000D01*
X117642000Y-19892000D02*
X117247000Y-20288000D01*
X120288000Y-17246000D02*
X119908000Y-17626000D01*
X117893000Y-20174000D02*
X117513000Y-20554000D01*
X120554000Y-17512000D02*
X120159000Y-17908000D01*
X112642000Y-19892000D02*
X112247000Y-20288000D01*
X115288000Y-17246000D02*
X114908000Y-17626000D01*
X112893000Y-20174000D02*
X112513000Y-20554000D01*
X115554000Y-17512000D02*
X115159000Y-17908000D01*
X107642000Y-19892000D02*
X107247000Y-20288000D01*
X110288000Y-17246000D02*
X109908000Y-17626000D01*
X107893000Y-20174000D02*
X107513000Y-20554000D01*
X110554000Y-17512000D02*
X110159000Y-17908000D01*
X102642000Y-19892000D02*
X102247000Y-20288000D01*
X105288000Y-17246000D02*
X104908000Y-17626000D01*
X102893000Y-20174000D02*
X102513000Y-20554000D01*
X105554000Y-17512000D02*
X105159000Y-17908000D01*
X97642000Y-19892000D02*
X97247000Y-20288000D01*
X100288000Y-17246000D02*
X99908000Y-17626000D01*
X97893000Y-20174000D02*
X97513000Y-20554000D01*
X100554000Y-17512000D02*
X100159000Y-17908000D01*
X92642000Y-19892000D02*
X92247000Y-20288000D01*
X95288000Y-17246000D02*
X94908000Y-17626000D01*
X92893000Y-20174000D02*
X92513000Y-20554000D01*
X95554000Y-17512000D02*
X95159000Y-17908000D01*
X87642000Y-19892000D02*
X87247000Y-20288000D01*
X90288000Y-17246000D02*
X89908000Y-17626000D01*
X87893000Y-20174000D02*
X87513000Y-20554000D01*
X90554000Y-17512000D02*
X90159000Y-17908000D01*
X82642000Y-19892000D02*
X82247000Y-20288000D01*
X85288000Y-17246000D02*
X84908000Y-17626000D01*
X82893000Y-20174000D02*
X82513000Y-20554000D01*
X85554000Y-17512000D02*
X85159000Y-17908000D01*
X77642000Y-19892000D02*
X77247000Y-20288000D01*
X80288000Y-17246000D02*
X79908000Y-17626000D01*
X77893000Y-20174000D02*
X77513000Y-20554000D01*
X80554000Y-17512000D02*
X80159000Y-17908000D01*
X72642000Y-19892000D02*
X72247000Y-20288000D01*
X75288000Y-17246000D02*
X74908000Y-17626000D01*
X72893000Y-20174000D02*
X72513000Y-20554000D01*
X75554000Y-17512000D02*
X75159000Y-17908000D01*
X67642000Y-19892000D02*
X67247000Y-20288000D01*
X70288000Y-17246000D02*
X69908000Y-17626000D01*
X67893000Y-20174000D02*
X67513000Y-20554000D01*
X70554000Y-17512000D02*
X70159000Y-17908000D01*
X62642000Y-19892000D02*
X62247000Y-20288000D01*
X65288000Y-17246000D02*
X64908000Y-17626000D01*
X62893000Y-20174000D02*
X62513000Y-20554000D01*
X65554000Y-17512000D02*
X65159000Y-17908000D01*
X57642000Y-19892000D02*
X57247000Y-20288000D01*
X60288000Y-17246000D02*
X59908000Y-17626000D01*
X57893000Y-20174000D02*
X57513000Y-20554000D01*
X60554000Y-17512000D02*
X60159000Y-17908000D01*
X52642000Y-19892000D02*
X52247000Y-20288000D01*
X55288000Y-17246000D02*
X54908000Y-17626000D01*
X52893000Y-20174000D02*
X52513000Y-20554000D01*
X55554000Y-17512000D02*
X55159000Y-17908000D01*
X47642000Y-19892000D02*
X47247000Y-20288000D01*
X50288000Y-17246000D02*
X49908000Y-17626000D01*
X47893000Y-20174000D02*
X47513000Y-20554000D01*
X50554000Y-17512000D02*
X50159000Y-17908000D01*
X42352000Y-20181000D02*
X42246000Y-20288000D01*
X45288000Y-17246000D02*
X45181000Y-17353000D01*
X42618000Y-20447000D02*
X42512000Y-20554000D01*
X45554000Y-17512000D02*
X45447000Y-17619000D01*
X121460000Y-14840000D02*
X121460000Y-23960000D01*
X41340000Y-14840000D02*
X41340000Y-23960000D01*
X41340000Y-23960000D02*
X121460000Y-23960000D01*
X41340000Y-14840000D02*
X121460000Y-14840000D01*
X41340000Y-22400000D02*
X121460000Y-22400000D01*
X41340000Y-23500000D02*
X121460000Y-23500000D01*
X121080000Y-18900000D02*
G75*
G03X121080000Y-18900000I-2180000J0D01*
G01*
X116080000Y-18900000D02*
G75*
G03X116080000Y-18900000I-2180000J0D01*
G01*
X111080000Y-18900000D02*
G75*
G03X111080000Y-18900000I-2180000J0D01*
G01*
X106080000Y-18900000D02*
G75*
G03X106080000Y-18900000I-2180000J0D01*
G01*
X101080000Y-18900000D02*
G75*
G03X101080000Y-18900000I-2180000J0D01*
G01*
X96080000Y-18900000D02*
G75*
G03X96080000Y-18900000I-2180000J0D01*
G01*
X91080000Y-18900000D02*
G75*
G03X91080000Y-18900000I-2180000J0D01*
G01*
X86080000Y-18900000D02*
G75*
G03X86080000Y-18900000I-2180000J0D01*
G01*
X81080000Y-18900000D02*
G75*
G03X81080000Y-18900000I-2180000J0D01*
G01*
X76080000Y-18900000D02*
G75*
G03X76080000Y-18900000I-2180000J0D01*
G01*
X71080000Y-18900000D02*
G75*
G03X71080000Y-18900000I-2180000J0D01*
G01*
X66080000Y-18900000D02*
G75*
G03X66080000Y-18900000I-2180000J0D01*
G01*
X61080000Y-18900000D02*
G75*
G03X61080000Y-18900000I-2180000J0D01*
G01*
X56080000Y-18900000D02*
G75*
G03X56080000Y-18900000I-2180000J0D01*
G01*
X51080000Y-18900000D02*
G75*
G03X51080000Y-18900000I-2180000J0D01*
G01*
X46080000Y-18900000D02*
G75*
G03X46080000Y-18900000I-2180000J0D01*
G01*
X69997936Y-1260000D02*
X71202064Y-1260000D01*
X69997936Y560000D02*
X71202064Y560000D01*
X70152937Y-8295001D02*
X71357065Y-8295001D01*
X70152937Y-6475001D02*
X71357065Y-6475001D01*
X69997936Y2490000D02*
X71202064Y2490000D01*
X69997936Y4310000D02*
X71202064Y4310000D01*
X70152937Y-5005001D02*
X71357065Y-5005001D01*
X70152937Y-3185001D02*
X71357065Y-3185001D01*
X82690000Y-5397936D02*
X82690000Y-6602064D01*
X84510000Y-5397936D02*
X84510000Y-6602064D01*
X74380000Y10490000D02*
X74380000Y7950000D01*
X71840000Y10490000D02*
X71840000Y7950000D01*
X69300000Y10490000D02*
X69300000Y7950000D01*
X76960000Y26380000D02*
X76960000Y10490000D01*
X66720000Y26380000D02*
X66720000Y10490000D01*
X66720000Y26380000D02*
X76960000Y26380000D01*
X66720000Y10490000D02*
X76960000Y10490000D01*
X68000000Y-9950000D02*
X73400000Y-9950000D01*
X68000000Y-13250000D02*
X73400000Y-13250000D01*
X68000000Y-9950000D02*
X68000000Y-13250000D01*
X78200000Y-9950000D02*
X83600000Y-9950000D01*
X78200000Y-13250000D02*
X83600000Y-13250000D01*
X78200000Y-9950000D02*
X78200000Y-13250000D01*
X79600000Y13650000D02*
X85000000Y13650000D01*
X79600000Y10350000D02*
X85000000Y10350000D01*
X79600000Y13650000D02*
X79600000Y10350000D01*
D12*
X79441615Y-6725467D02*
G75*
G02X78950000Y-7330000I-1841615J995467D01*
G01*
X76243853Y-7337285D02*
G75*
G02X75750000Y-6730000I1356147J1607285D01*
G01*
X78600000Y-3880000D02*
G75*
G02X79450000Y-4730000I-1000000J-1850000D01*
G01*
X75750000Y-4730000D02*
G75*
G02X76600000Y-3880000I1850000J-1000000D01*
G01*
X76250000Y-7330000D02*
X76500000Y-7330000D01*
X78950000Y-7330000D02*
X78700000Y-7330000D01*
D11*
X86320354Y-425000D02*
X86320354Y-1425000D01*
X85820354Y-925000D02*
X86820354Y-925000D01*
X96381000Y-3201000D02*
X96381000Y-4399000D01*
X96341000Y-2938000D02*
X96341000Y-4662000D01*
X96301000Y-2738000D02*
X96301000Y-4862000D01*
X96261000Y-2570000D02*
X96261000Y-5030000D01*
X96221000Y-2422000D02*
X96221000Y-5178000D01*
X96181000Y-2290000D02*
X96181000Y-5310000D01*
X96141000Y-2170000D02*
X96141000Y-5430000D01*
X96101000Y-2058000D02*
X96101000Y-5542000D01*
X96061000Y-1954000D02*
X96061000Y-5646000D01*
X96021000Y-1856000D02*
X96021000Y-5744000D01*
X95981000Y-1763000D02*
X95981000Y-5837000D01*
X95941000Y-1675000D02*
X95941000Y-5925000D01*
X95901000Y-1591000D02*
X95901000Y-6009000D01*
X95861000Y-1511000D02*
X95861000Y-6089000D01*
X95821000Y-1435000D02*
X95821000Y-6165000D01*
X95781000Y-1361000D02*
X95781000Y-6239000D01*
X95741000Y-1290000D02*
X95741000Y-6310000D01*
X95701000Y-1221000D02*
X95701000Y-6379000D01*
X95661000Y-1155000D02*
X95661000Y-6445000D01*
X95621000Y-1091000D02*
X95621000Y-6509000D01*
X95581000Y-1030000D02*
X95581000Y-6570000D01*
X95541000Y-970000D02*
X95541000Y-6630000D01*
X95501000Y-911000D02*
X95501000Y-6689000D01*
X95461000Y-855000D02*
X95461000Y-6745000D01*
X95421000Y-800000D02*
X95421000Y-6800000D01*
X95381000Y-746000D02*
X95381000Y-6854000D01*
X95341000Y-694000D02*
X95341000Y-6906000D01*
X95301000Y-644000D02*
X95301000Y-6956000D01*
X95261000Y-594000D02*
X95261000Y-7006000D01*
X95221000Y-546000D02*
X95221000Y-7054000D01*
X95181000Y-499000D02*
X95181000Y-7101000D01*
X95141000Y-453000D02*
X95141000Y-7147000D01*
X95101000Y-408000D02*
X95101000Y-7192000D01*
X95061000Y-364000D02*
X95061000Y-7236000D01*
X95021000Y-5041000D02*
X95021000Y-7278000D01*
X95021000Y-322000D02*
X95021000Y-2559000D01*
X94981000Y-5041000D02*
X94981000Y-7320000D01*
X94981000Y-280000D02*
X94981000Y-2559000D01*
X94941000Y-5041000D02*
X94941000Y-7361000D01*
X94941000Y-239000D02*
X94941000Y-2559000D01*
X94901000Y-5041000D02*
X94901000Y-7401000D01*
X94901000Y-199000D02*
X94901000Y-2559000D01*
X94861000Y-5041000D02*
X94861000Y-7440000D01*
X94861000Y-160000D02*
X94861000Y-2559000D01*
X94821000Y-5041000D02*
X94821000Y-7479000D01*
X94821000Y-121000D02*
X94821000Y-2559000D01*
X94781000Y-5041000D02*
X94781000Y-7516000D01*
X94781000Y-84000D02*
X94781000Y-2559000D01*
X94741000Y-5041000D02*
X94741000Y-7553000D01*
X94741000Y-47000D02*
X94741000Y-2559000D01*
X94701000Y-5041000D02*
X94701000Y-7589000D01*
X94701000Y-11000D02*
X94701000Y-2559000D01*
X94661000Y-5041000D02*
X94661000Y-7624000D01*
X94661000Y24000D02*
X94661000Y-2559000D01*
X94621000Y-5041000D02*
X94621000Y-7658000D01*
X94621000Y58000D02*
X94621000Y-2559000D01*
X94581000Y-5041000D02*
X94581000Y-7692000D01*
X94581000Y92000D02*
X94581000Y-2559000D01*
X94541000Y-5041000D02*
X94541000Y-7725000D01*
X94541000Y125000D02*
X94541000Y-2559000D01*
X94501000Y-5041000D02*
X94501000Y-7757000D01*
X94501000Y157000D02*
X94501000Y-2559000D01*
X94461000Y-5041000D02*
X94461000Y-7789000D01*
X94461000Y189000D02*
X94461000Y-2559000D01*
X94421000Y-5041000D02*
X94421000Y-7820000D01*
X94421000Y220000D02*
X94421000Y-2559000D01*
X94381000Y-5041000D02*
X94381000Y-7850000D01*
X94381000Y250000D02*
X94381000Y-2559000D01*
X94341000Y-5041000D02*
X94341000Y-7880000D01*
X94341000Y280000D02*
X94341000Y-2559000D01*
X94301000Y-5041000D02*
X94301000Y-7910000D01*
X94301000Y310000D02*
X94301000Y-2559000D01*
X94261000Y-5041000D02*
X94261000Y-7938000D01*
X94261000Y338000D02*
X94261000Y-2559000D01*
X94221000Y-5041000D02*
X94221000Y-7966000D01*
X94221000Y366000D02*
X94221000Y-2559000D01*
X94181000Y-5041000D02*
X94181000Y-7994000D01*
X94181000Y394000D02*
X94181000Y-2559000D01*
X94141000Y-5041000D02*
X94141000Y-8021000D01*
X94141000Y421000D02*
X94141000Y-2559000D01*
X94101000Y-5041000D02*
X94101000Y-8047000D01*
X94101000Y447000D02*
X94101000Y-2559000D01*
X94061000Y-5041000D02*
X94061000Y-8073000D01*
X94061000Y473000D02*
X94061000Y-2559000D01*
X94021000Y-5041000D02*
X94021000Y-8098000D01*
X94021000Y498000D02*
X94021000Y-2559000D01*
X93981000Y-5041000D02*
X93981000Y-8123000D01*
X93981000Y523000D02*
X93981000Y-2559000D01*
X93941000Y-5041000D02*
X93941000Y-8147000D01*
X93941000Y547000D02*
X93941000Y-2559000D01*
X93901000Y-5041000D02*
X93901000Y-8171000D01*
X93901000Y571000D02*
X93901000Y-2559000D01*
X93861000Y-5041000D02*
X93861000Y-8195000D01*
X93861000Y595000D02*
X93861000Y-2559000D01*
X93821000Y-5041000D02*
X93821000Y-8217000D01*
X93821000Y617000D02*
X93821000Y-2559000D01*
X93781000Y-5041000D02*
X93781000Y-8240000D01*
X93781000Y640000D02*
X93781000Y-2559000D01*
X93741000Y-5041000D02*
X93741000Y-8262000D01*
X93741000Y662000D02*
X93741000Y-2559000D01*
X93701000Y-5041000D02*
X93701000Y-8283000D01*
X93701000Y683000D02*
X93701000Y-2559000D01*
X93661000Y-5041000D02*
X93661000Y-8304000D01*
X93661000Y704000D02*
X93661000Y-2559000D01*
X93621000Y-5041000D02*
X93621000Y-8325000D01*
X93621000Y725000D02*
X93621000Y-2559000D01*
X93581000Y-5041000D02*
X93581000Y-8345000D01*
X93581000Y745000D02*
X93581000Y-2559000D01*
X93541000Y-5041000D02*
X93541000Y-8364000D01*
X93541000Y764000D02*
X93541000Y-2559000D01*
X93501000Y-5041000D02*
X93501000Y-8384000D01*
X93501000Y784000D02*
X93501000Y-2559000D01*
X93461000Y-5041000D02*
X93461000Y-8403000D01*
X93461000Y803000D02*
X93461000Y-2559000D01*
X93421000Y-5041000D02*
X93421000Y-8421000D01*
X93421000Y821000D02*
X93421000Y-2559000D01*
X93381000Y-5041000D02*
X93381000Y-8439000D01*
X93381000Y839000D02*
X93381000Y-2559000D01*
X93341000Y-5041000D02*
X93341000Y-8457000D01*
X93341000Y857000D02*
X93341000Y-2559000D01*
X93301000Y-5041000D02*
X93301000Y-8474000D01*
X93301000Y874000D02*
X93301000Y-2559000D01*
X93261000Y-5041000D02*
X93261000Y-8490000D01*
X93261000Y890000D02*
X93261000Y-2559000D01*
X93221000Y-5041000D02*
X93221000Y-8507000D01*
X93221000Y907000D02*
X93221000Y-2559000D01*
X93181000Y-5041000D02*
X93181000Y-8523000D01*
X93181000Y923000D02*
X93181000Y-2559000D01*
X93141000Y-5041000D02*
X93141000Y-8538000D01*
X93141000Y938000D02*
X93141000Y-2559000D01*
X93101000Y-5041000D02*
X93101000Y-8554000D01*
X93101000Y954000D02*
X93101000Y-2559000D01*
X93061000Y-5041000D02*
X93061000Y-8568000D01*
X93061000Y968000D02*
X93061000Y-2559000D01*
X93021000Y-5041000D02*
X93021000Y-8583000D01*
X93021000Y983000D02*
X93021000Y-2559000D01*
X92981000Y-5041000D02*
X92981000Y-8597000D01*
X92981000Y997000D02*
X92981000Y-2559000D01*
X92941000Y-5041000D02*
X92941000Y-8611000D01*
X92941000Y1011000D02*
X92941000Y-2559000D01*
X92901000Y-5041000D02*
X92901000Y-8624000D01*
X92901000Y1024000D02*
X92901000Y-2559000D01*
X92861000Y-5041000D02*
X92861000Y-8637000D01*
X92861000Y1037000D02*
X92861000Y-2559000D01*
X92821000Y-5041000D02*
X92821000Y-8650000D01*
X92821000Y1050000D02*
X92821000Y-2559000D01*
X92781000Y-5041000D02*
X92781000Y-8662000D01*
X92781000Y1062000D02*
X92781000Y-2559000D01*
X92741000Y-5041000D02*
X92741000Y-8674000D01*
X92741000Y1074000D02*
X92741000Y-2559000D01*
X92701000Y-5041000D02*
X92701000Y-8685000D01*
X92701000Y1085000D02*
X92701000Y-2559000D01*
X92661000Y-5041000D02*
X92661000Y-8697000D01*
X92661000Y1097000D02*
X92661000Y-2559000D01*
X92621000Y-5041000D02*
X92621000Y-8707000D01*
X92621000Y1107000D02*
X92621000Y-2559000D01*
X92581000Y-5041000D02*
X92581000Y-8718000D01*
X92581000Y1118000D02*
X92581000Y-2559000D01*
X92541000Y1128000D02*
X92541000Y-8728000D01*
X92501000Y1138000D02*
X92501000Y-8738000D01*
X92461000Y1147000D02*
X92461000Y-8747000D01*
X92421000Y1156000D02*
X92421000Y-8756000D01*
X92381000Y1165000D02*
X92381000Y-8765000D01*
X92341000Y1174000D02*
X92341000Y-8774000D01*
X92301000Y1182000D02*
X92301000Y-8782000D01*
X92261000Y1190000D02*
X92261000Y-8790000D01*
X92221000Y1197000D02*
X92221000Y-8797000D01*
X92181000Y1204000D02*
X92181000Y-8804000D01*
X92141000Y1211000D02*
X92141000Y-8811000D01*
X92101000Y1218000D02*
X92101000Y-8818000D01*
X92061000Y1224000D02*
X92061000Y-8824000D01*
X92021000Y1230000D02*
X92021000Y-8830000D01*
X91980000Y1235000D02*
X91980000Y-8835000D01*
X91940000Y1240000D02*
X91940000Y-8840000D01*
X91900000Y1245000D02*
X91900000Y-8845000D01*
X91860000Y1250000D02*
X91860000Y-8850000D01*
X91820000Y1254000D02*
X91820000Y-8854000D01*
X91780000Y1258000D02*
X91780000Y-8858000D01*
X91740000Y1262000D02*
X91740000Y-8862000D01*
X91700000Y1265000D02*
X91700000Y-8865000D01*
X91660000Y1268000D02*
X91660000Y-8868000D01*
X91620000Y1270000D02*
X91620000Y-8870000D01*
X91580000Y1273000D02*
X91580000Y-8873000D01*
X91540000Y1275000D02*
X91540000Y-8875000D01*
X91500000Y1277000D02*
X91500000Y-8877000D01*
X91460000Y1278000D02*
X91460000Y-8878000D01*
X91420000Y1279000D02*
X91420000Y-8879000D01*
X91380000Y1280000D02*
X91380000Y-8880000D01*
X91340000Y1280000D02*
X91340000Y-8880000D01*
X91300000Y1280000D02*
X91300000Y-8880000D01*
X96420000Y-3800000D02*
G75*
G03X96420000Y-3800000I-5120000J0D01*
G01*
X77920354Y6975000D02*
X77920354Y5975000D01*
X77420354Y6475000D02*
X78420354Y6475000D01*
X87981000Y4199000D02*
X87981000Y3001000D01*
X87941000Y4462000D02*
X87941000Y2738000D01*
X87901000Y4662000D02*
X87901000Y2538000D01*
X87861000Y4830000D02*
X87861000Y2370000D01*
X87821000Y4978000D02*
X87821000Y2222000D01*
X87781000Y5110000D02*
X87781000Y2090000D01*
X87741000Y5230000D02*
X87741000Y1970000D01*
X87701000Y5342000D02*
X87701000Y1858000D01*
X87661000Y5446000D02*
X87661000Y1754000D01*
X87621000Y5544000D02*
X87621000Y1656000D01*
X87581000Y5637000D02*
X87581000Y1563000D01*
X87541000Y5725000D02*
X87541000Y1475000D01*
X87501000Y5809000D02*
X87501000Y1391000D01*
X87461000Y5889000D02*
X87461000Y1311000D01*
X87421000Y5965000D02*
X87421000Y1235000D01*
X87381000Y6039000D02*
X87381000Y1161000D01*
X87341000Y6110000D02*
X87341000Y1090000D01*
X87301000Y6179000D02*
X87301000Y1021000D01*
X87261000Y6245000D02*
X87261000Y955000D01*
X87221000Y6309000D02*
X87221000Y891000D01*
X87181000Y6370000D02*
X87181000Y830000D01*
X87141000Y6430000D02*
X87141000Y770000D01*
X87101000Y6489000D02*
X87101000Y711000D01*
X87061000Y6545000D02*
X87061000Y655000D01*
X87021000Y6600000D02*
X87021000Y600000D01*
X86981000Y6654000D02*
X86981000Y546000D01*
X86941000Y6706000D02*
X86941000Y494000D01*
X86901000Y6756000D02*
X86901000Y444000D01*
X86861000Y6806000D02*
X86861000Y394000D01*
X86821000Y6854000D02*
X86821000Y346000D01*
X86781000Y6901000D02*
X86781000Y299000D01*
X86741000Y6947000D02*
X86741000Y253000D01*
X86701000Y6992000D02*
X86701000Y208000D01*
X86661000Y7036000D02*
X86661000Y164000D01*
X86621000Y2359000D02*
X86621000Y122000D01*
X86621000Y7078000D02*
X86621000Y4841000D01*
X86581000Y2359000D02*
X86581000Y80000D01*
X86581000Y7120000D02*
X86581000Y4841000D01*
X86541000Y2359000D02*
X86541000Y39000D01*
X86541000Y7161000D02*
X86541000Y4841000D01*
X86501000Y2359000D02*
X86501000Y-1000D01*
X86501000Y7201000D02*
X86501000Y4841000D01*
X86461000Y2359000D02*
X86461000Y-40000D01*
X86461000Y7240000D02*
X86461000Y4841000D01*
X86421000Y2359000D02*
X86421000Y-79000D01*
X86421000Y7279000D02*
X86421000Y4841000D01*
X86381000Y2359000D02*
X86381000Y-116000D01*
X86381000Y7316000D02*
X86381000Y4841000D01*
X86341000Y2359000D02*
X86341000Y-153000D01*
X86341000Y7353000D02*
X86341000Y4841000D01*
X86301000Y2359000D02*
X86301000Y-189000D01*
X86301000Y7389000D02*
X86301000Y4841000D01*
X86261000Y2359000D02*
X86261000Y-224000D01*
X86261000Y7424000D02*
X86261000Y4841000D01*
X86221000Y2359000D02*
X86221000Y-258000D01*
X86221000Y7458000D02*
X86221000Y4841000D01*
X86181000Y2359000D02*
X86181000Y-292000D01*
X86181000Y7492000D02*
X86181000Y4841000D01*
X86141000Y2359000D02*
X86141000Y-325000D01*
X86141000Y7525000D02*
X86141000Y4841000D01*
X86101000Y2359000D02*
X86101000Y-357000D01*
X86101000Y7557000D02*
X86101000Y4841000D01*
X86061000Y2359000D02*
X86061000Y-389000D01*
X86061000Y7589000D02*
X86061000Y4841000D01*
X86021000Y2359000D02*
X86021000Y-420000D01*
X86021000Y7620000D02*
X86021000Y4841000D01*
X85981000Y2359000D02*
X85981000Y-450000D01*
X85981000Y7650000D02*
X85981000Y4841000D01*
X85941000Y2359000D02*
X85941000Y-480000D01*
X85941000Y7680000D02*
X85941000Y4841000D01*
X85901000Y2359000D02*
X85901000Y-510000D01*
X85901000Y7710000D02*
X85901000Y4841000D01*
X85861000Y2359000D02*
X85861000Y-538000D01*
X85861000Y7738000D02*
X85861000Y4841000D01*
X85821000Y2359000D02*
X85821000Y-566000D01*
X85821000Y7766000D02*
X85821000Y4841000D01*
X85781000Y2359000D02*
X85781000Y-594000D01*
X85781000Y7794000D02*
X85781000Y4841000D01*
X85741000Y2359000D02*
X85741000Y-621000D01*
X85741000Y7821000D02*
X85741000Y4841000D01*
X85701000Y2359000D02*
X85701000Y-647000D01*
X85701000Y7847000D02*
X85701000Y4841000D01*
X85661000Y2359000D02*
X85661000Y-673000D01*
X85661000Y7873000D02*
X85661000Y4841000D01*
X85621000Y2359000D02*
X85621000Y-698000D01*
X85621000Y7898000D02*
X85621000Y4841000D01*
X85581000Y2359000D02*
X85581000Y-723000D01*
X85581000Y7923000D02*
X85581000Y4841000D01*
X85541000Y2359000D02*
X85541000Y-747000D01*
X85541000Y7947000D02*
X85541000Y4841000D01*
X85501000Y2359000D02*
X85501000Y-771000D01*
X85501000Y7971000D02*
X85501000Y4841000D01*
X85461000Y2359000D02*
X85461000Y-795000D01*
X85461000Y7995000D02*
X85461000Y4841000D01*
X85421000Y2359000D02*
X85421000Y-817000D01*
X85421000Y8017000D02*
X85421000Y4841000D01*
X85381000Y2359000D02*
X85381000Y-840000D01*
X85381000Y8040000D02*
X85381000Y4841000D01*
X85341000Y2359000D02*
X85341000Y-862000D01*
X85341000Y8062000D02*
X85341000Y4841000D01*
X85301000Y2359000D02*
X85301000Y-883000D01*
X85301000Y8083000D02*
X85301000Y4841000D01*
X85261000Y2359000D02*
X85261000Y-904000D01*
X85261000Y8104000D02*
X85261000Y4841000D01*
X85221000Y2359000D02*
X85221000Y-925000D01*
X85221000Y8125000D02*
X85221000Y4841000D01*
X85181000Y2359000D02*
X85181000Y-945000D01*
X85181000Y8145000D02*
X85181000Y4841000D01*
X85141000Y2359000D02*
X85141000Y-964000D01*
X85141000Y8164000D02*
X85141000Y4841000D01*
X85101000Y2359000D02*
X85101000Y-984000D01*
X85101000Y8184000D02*
X85101000Y4841000D01*
X85061000Y2359000D02*
X85061000Y-1003000D01*
X85061000Y8203000D02*
X85061000Y4841000D01*
X85021000Y2359000D02*
X85021000Y-1021000D01*
X85021000Y8221000D02*
X85021000Y4841000D01*
X84981000Y2359000D02*
X84981000Y-1039000D01*
X84981000Y8239000D02*
X84981000Y4841000D01*
X84941000Y2359000D02*
X84941000Y-1057000D01*
X84941000Y8257000D02*
X84941000Y4841000D01*
X84901000Y2359000D02*
X84901000Y-1074000D01*
X84901000Y8274000D02*
X84901000Y4841000D01*
X84861000Y2359000D02*
X84861000Y-1090000D01*
X84861000Y8290000D02*
X84861000Y4841000D01*
X84821000Y2359000D02*
X84821000Y-1107000D01*
X84821000Y8307000D02*
X84821000Y4841000D01*
X84781000Y2359000D02*
X84781000Y-1123000D01*
X84781000Y8323000D02*
X84781000Y4841000D01*
X84741000Y2359000D02*
X84741000Y-1138000D01*
X84741000Y8338000D02*
X84741000Y4841000D01*
X84701000Y2359000D02*
X84701000Y-1154000D01*
X84701000Y8354000D02*
X84701000Y4841000D01*
X84661000Y2359000D02*
X84661000Y-1168000D01*
X84661000Y8368000D02*
X84661000Y4841000D01*
X84621000Y2359000D02*
X84621000Y-1183000D01*
X84621000Y8383000D02*
X84621000Y4841000D01*
X84581000Y2359000D02*
X84581000Y-1197000D01*
X84581000Y8397000D02*
X84581000Y4841000D01*
X84541000Y2359000D02*
X84541000Y-1211000D01*
X84541000Y8411000D02*
X84541000Y4841000D01*
X84501000Y2359000D02*
X84501000Y-1224000D01*
X84501000Y8424000D02*
X84501000Y4841000D01*
X84461000Y2359000D02*
X84461000Y-1237000D01*
X84461000Y8437000D02*
X84461000Y4841000D01*
X84421000Y2359000D02*
X84421000Y-1250000D01*
X84421000Y8450000D02*
X84421000Y4841000D01*
X84381000Y2359000D02*
X84381000Y-1262000D01*
X84381000Y8462000D02*
X84381000Y4841000D01*
X84341000Y2359000D02*
X84341000Y-1274000D01*
X84341000Y8474000D02*
X84341000Y4841000D01*
X84301000Y2359000D02*
X84301000Y-1285000D01*
X84301000Y8485000D02*
X84301000Y4841000D01*
X84261000Y2359000D02*
X84261000Y-1297000D01*
X84261000Y8497000D02*
X84261000Y4841000D01*
X84221000Y2359000D02*
X84221000Y-1307000D01*
X84221000Y8507000D02*
X84221000Y4841000D01*
X84181000Y2359000D02*
X84181000Y-1318000D01*
X84181000Y8518000D02*
X84181000Y4841000D01*
X84141000Y8528000D02*
X84141000Y-1328000D01*
X84101000Y8538000D02*
X84101000Y-1338000D01*
X84061000Y8547000D02*
X84061000Y-1347000D01*
X84021000Y8556000D02*
X84021000Y-1356000D01*
X83981000Y8565000D02*
X83981000Y-1365000D01*
X83941000Y8574000D02*
X83941000Y-1374000D01*
X83901000Y8582000D02*
X83901000Y-1382000D01*
X83861000Y8590000D02*
X83861000Y-1390000D01*
X83821000Y8597000D02*
X83821000Y-1397000D01*
X83781000Y8604000D02*
X83781000Y-1404000D01*
X83741000Y8611000D02*
X83741000Y-1411000D01*
X83701000Y8618000D02*
X83701000Y-1418000D01*
X83661000Y8624000D02*
X83661000Y-1424000D01*
X83621000Y8630000D02*
X83621000Y-1430000D01*
X83580000Y8635000D02*
X83580000Y-1435000D01*
X83540000Y8640000D02*
X83540000Y-1440000D01*
X83500000Y8645000D02*
X83500000Y-1445000D01*
X83460000Y8650000D02*
X83460000Y-1450000D01*
X83420000Y8654000D02*
X83420000Y-1454000D01*
X83380000Y8658000D02*
X83380000Y-1458000D01*
X83340000Y8662000D02*
X83340000Y-1462000D01*
X83300000Y8665000D02*
X83300000Y-1465000D01*
X83260000Y8668000D02*
X83260000Y-1468000D01*
X83220000Y8670000D02*
X83220000Y-1470000D01*
X83180000Y8673000D02*
X83180000Y-1473000D01*
X83140000Y8675000D02*
X83140000Y-1475000D01*
X83100000Y8677000D02*
X83100000Y-1477000D01*
X83060000Y8678000D02*
X83060000Y-1478000D01*
X83020000Y8679000D02*
X83020000Y-1479000D01*
X82980000Y8680000D02*
X82980000Y-1480000D01*
X82940000Y8680000D02*
X82940000Y-1480000D01*
X82900000Y8680000D02*
X82900000Y-1480000D01*
X88020000Y3600000D02*
G75*
G03X88020000Y3600000I-5120000J0D01*
G01*
D13*
X55488095Y47347619D02*
X55488095Y48347619D01*
X55488095Y47871428D02*
X56059523Y47871428D01*
X56059523Y47347619D02*
X56059523Y48347619D01*
X56964285Y48014285D02*
X56964285Y47347619D01*
X56726190Y48395238D02*
X56488095Y47680952D01*
X57107142Y47680952D01*
X105738095Y47347619D02*
X105738095Y48347619D01*
X105738095Y47871428D02*
X106309523Y47871428D01*
X106309523Y47347619D02*
X106309523Y48347619D01*
X106690476Y48347619D02*
X107309523Y48347619D01*
X106976190Y47966666D01*
X107119047Y47966666D01*
X107214285Y47919047D01*
X107261904Y47871428D01*
X107309523Y47776190D01*
X107309523Y47538095D01*
X107261904Y47442857D01*
X107214285Y47395238D01*
X107119047Y47347619D01*
X106833333Y47347619D01*
X106738095Y47395238D01*
X106690476Y47442857D01*
X55488095Y-4152380D02*
X55488095Y-3152380D01*
X55488095Y-3628571D02*
X56059523Y-3628571D01*
X56059523Y-4152380D02*
X56059523Y-3152380D01*
X56488095Y-3247619D02*
X56535714Y-3200000D01*
X56630952Y-3152380D01*
X56869047Y-3152380D01*
X56964285Y-3200000D01*
X57011904Y-3247619D01*
X57059523Y-3342857D01*
X57059523Y-3438095D01*
X57011904Y-3580952D01*
X56440476Y-4152380D01*
X57059523Y-4152380D01*
X105738095Y-3902380D02*
X105738095Y-2902380D01*
X105738095Y-3378571D02*
X106309523Y-3378571D01*
X106309523Y-3902380D02*
X106309523Y-2902380D01*
X107309523Y-3902380D02*
X106738095Y-3902380D01*
X107023809Y-3902380D02*
X107023809Y-2902380D01*
X106928571Y-3045238D01*
X106833333Y-3140476D01*
X106738095Y-3188095D01*
X50912380Y16366666D02*
X51626666Y16366666D01*
X51769523Y16319047D01*
X51864761Y16223809D01*
X51912380Y16080952D01*
X51912380Y15985714D01*
X50912380Y16747619D02*
X50912380Y17366666D01*
X51293333Y17033333D01*
X51293333Y17176190D01*
X51340952Y17271428D01*
X51388571Y17319047D01*
X51483809Y17366666D01*
X51721904Y17366666D01*
X51817142Y17319047D01*
X51864761Y17271428D01*
X51912380Y17176190D01*
X51912380Y16890476D01*
X51864761Y16795238D01*
X51817142Y16747619D01*
X110692380Y16366666D02*
X111406666Y16366666D01*
X111549523Y16319047D01*
X111644761Y16223809D01*
X111692380Y16080952D01*
X111692380Y15985714D01*
X110787619Y16795238D02*
X110740000Y16842857D01*
X110692380Y16938095D01*
X110692380Y17176190D01*
X110740000Y17271428D01*
X110787619Y17319047D01*
X110882857Y17366666D01*
X110978095Y17366666D01*
X111120952Y17319047D01*
X111692380Y16747619D01*
X111692380Y17366666D01*
X81066666Y47787619D02*
X81066666Y47073333D01*
X81019047Y46930476D01*
X80923809Y46835238D01*
X80780952Y46787619D01*
X80685714Y46787619D01*
X81971428Y47454285D02*
X81971428Y46787619D01*
X81733333Y47835238D02*
X81495238Y47120952D01*
X82114285Y47120952D01*
X81066666Y-13292380D02*
X81066666Y-14006666D01*
X81019047Y-14149523D01*
X80923809Y-14244761D01*
X80780952Y-14292380D01*
X80685714Y-14292380D01*
X82066666Y-14292380D02*
X81495238Y-14292380D01*
X81780952Y-14292380D02*
X81780952Y-13292380D01*
X81685714Y-13435238D01*
X81590476Y-13530476D01*
X81495238Y-13578095D01*
X70433333Y1017619D02*
X70100000Y1493809D01*
X69861904Y1017619D02*
X69861904Y2017619D01*
X70242857Y2017619D01*
X70338095Y1970000D01*
X70385714Y1922380D01*
X70433333Y1827142D01*
X70433333Y1684285D01*
X70385714Y1589047D01*
X70338095Y1541428D01*
X70242857Y1493809D01*
X69861904Y1493809D01*
X71338095Y2017619D02*
X70861904Y2017619D01*
X70814285Y1541428D01*
X70861904Y1589047D01*
X70957142Y1636666D01*
X71195238Y1636666D01*
X71290476Y1589047D01*
X71338095Y1541428D01*
X71385714Y1446190D01*
X71385714Y1208095D01*
X71338095Y1112857D01*
X71290476Y1065238D01*
X71195238Y1017619D01*
X70957142Y1017619D01*
X70861904Y1065238D01*
X70814285Y1112857D01*
X70588334Y-6017381D02*
X70255001Y-5541191D01*
X70016905Y-6017381D02*
X70016905Y-5017381D01*
X70397858Y-5017381D01*
X70493096Y-5065001D01*
X70540715Y-5112620D01*
X70588334Y-5207858D01*
X70588334Y-5350715D01*
X70540715Y-5445953D01*
X70493096Y-5493572D01*
X70397858Y-5541191D01*
X70016905Y-5541191D01*
X71445477Y-5350715D02*
X71445477Y-6017381D01*
X71207381Y-4969762D02*
X70969286Y-5684048D01*
X71588334Y-5684048D01*
X70433333Y4767619D02*
X70100000Y5243809D01*
X69861904Y4767619D02*
X69861904Y5767619D01*
X70242857Y5767619D01*
X70338095Y5720000D01*
X70385714Y5672380D01*
X70433333Y5577142D01*
X70433333Y5434285D01*
X70385714Y5339047D01*
X70338095Y5291428D01*
X70242857Y5243809D01*
X69861904Y5243809D01*
X70766666Y5767619D02*
X71385714Y5767619D01*
X71052380Y5386666D01*
X71195238Y5386666D01*
X71290476Y5339047D01*
X71338095Y5291428D01*
X71385714Y5196190D01*
X71385714Y4958095D01*
X71338095Y4862857D01*
X71290476Y4815238D01*
X71195238Y4767619D01*
X70909523Y4767619D01*
X70814285Y4815238D01*
X70766666Y4862857D01*
X70588334Y-2727381D02*
X70255001Y-2251191D01*
X70016905Y-2727381D02*
X70016905Y-1727381D01*
X70397858Y-1727381D01*
X70493096Y-1775001D01*
X70540715Y-1822620D01*
X70588334Y-1917858D01*
X70588334Y-2060715D01*
X70540715Y-2155953D01*
X70493096Y-2203572D01*
X70397858Y-2251191D01*
X70016905Y-2251191D01*
X70969286Y-1822620D02*
X71016905Y-1775001D01*
X71112143Y-1727381D01*
X71350239Y-1727381D01*
X71445477Y-1775001D01*
X71493096Y-1822620D01*
X71540715Y-1917858D01*
X71540715Y-2013096D01*
X71493096Y-2155953D01*
X70921667Y-2727381D01*
X71540715Y-2727381D01*
X85872380Y-6166666D02*
X85396190Y-6500000D01*
X85872380Y-6738095D02*
X84872380Y-6738095D01*
X84872380Y-6357142D01*
X84920000Y-6261904D01*
X84967619Y-6214285D01*
X85062857Y-6166666D01*
X85205714Y-6166666D01*
X85300952Y-6214285D01*
X85348571Y-6261904D01*
X85396190Y-6357142D01*
X85396190Y-6738095D01*
X85872380Y-5214285D02*
X85872380Y-5785714D01*
X85872380Y-5500000D02*
X84872380Y-5500000D01*
X85015238Y-5595238D01*
X85110476Y-5690476D01*
X85158095Y-5785714D01*
X71744761Y26832380D02*
X71649523Y26880000D01*
X71554285Y26975238D01*
X71411428Y27118095D01*
X71316190Y27165714D01*
X71220952Y27165714D01*
X71268571Y26927619D02*
X71173333Y26975238D01*
X71078095Y27070476D01*
X71030476Y27260952D01*
X71030476Y27594285D01*
X71078095Y27784761D01*
X71173333Y27880000D01*
X71268571Y27927619D01*
X71459047Y27927619D01*
X71554285Y27880000D01*
X71649523Y27784761D01*
X71697142Y27594285D01*
X71697142Y27260952D01*
X71649523Y27070476D01*
X71554285Y26975238D01*
X71459047Y26927619D01*
X71268571Y26927619D01*
X72649523Y26927619D02*
X72078095Y26927619D01*
X72363809Y26927619D02*
X72363809Y27927619D01*
X72268571Y27784761D01*
X72173333Y27689523D01*
X72078095Y27641904D01*
X70661904Y-9552380D02*
X70661904Y-8552380D01*
X70900000Y-8552380D01*
X71042857Y-8600000D01*
X71138095Y-8695238D01*
X71185714Y-8790476D01*
X71233333Y-8980952D01*
X71233333Y-9123809D01*
X71185714Y-9314285D01*
X71138095Y-9409523D01*
X71042857Y-9504761D01*
X70900000Y-9552380D01*
X70661904Y-9552380D01*
X72090476Y-8885714D02*
X72090476Y-9552380D01*
X71852380Y-8504761D02*
X71614285Y-9219047D01*
X72233333Y-9219047D01*
X80861904Y-9552380D02*
X80861904Y-8552380D01*
X81100000Y-8552380D01*
X81242857Y-8600000D01*
X81338095Y-8695238D01*
X81385714Y-8790476D01*
X81433333Y-8980952D01*
X81433333Y-9123809D01*
X81385714Y-9314285D01*
X81338095Y-9409523D01*
X81242857Y-9504761D01*
X81100000Y-9552380D01*
X80861904Y-9552380D01*
X81766666Y-8552380D02*
X82385714Y-8552380D01*
X82052380Y-8933333D01*
X82195238Y-8933333D01*
X82290476Y-8980952D01*
X82338095Y-9028571D01*
X82385714Y-9123809D01*
X82385714Y-9361904D01*
X82338095Y-9457142D01*
X82290476Y-9504761D01*
X82195238Y-9552380D01*
X81909523Y-9552380D01*
X81814285Y-9504761D01*
X81766666Y-9457142D01*
X82261904Y14047619D02*
X82261904Y15047619D01*
X82500000Y15047619D01*
X82642857Y15000000D01*
X82738095Y14904761D01*
X82785714Y14809523D01*
X82833333Y14619047D01*
X82833333Y14476190D01*
X82785714Y14285714D01*
X82738095Y14190476D01*
X82642857Y14095238D01*
X82500000Y14047619D01*
X82261904Y14047619D01*
X83214285Y14952380D02*
X83261904Y15000000D01*
X83357142Y15047619D01*
X83595238Y15047619D01*
X83690476Y15000000D01*
X83738095Y14952380D01*
X83785714Y14857142D01*
X83785714Y14761904D01*
X83738095Y14619047D01*
X83166666Y14047619D01*
X83785714Y14047619D01*
X83132380Y-7738095D02*
X82132380Y-7738095D01*
X82132380Y-7500000D01*
X82180000Y-7357142D01*
X82275238Y-7261904D01*
X82370476Y-7214285D01*
X82560952Y-7166666D01*
X82703809Y-7166666D01*
X82894285Y-7214285D01*
X82989523Y-7261904D01*
X83084761Y-7357142D01*
X83132380Y-7500000D01*
X83132380Y-7738095D01*
X83132380Y-6214285D02*
X83132380Y-6785714D01*
X83132380Y-6500000D02*
X82132380Y-6500000D01*
X82275238Y-6595238D01*
X82370476Y-6690476D01*
X82418095Y-6785714D01*
X91133333Y2092857D02*
X91085714Y2045238D01*
X90942857Y1997619D01*
X90847619Y1997619D01*
X90704761Y2045238D01*
X90609523Y2140476D01*
X90561904Y2235714D01*
X90514285Y2426190D01*
X90514285Y2569047D01*
X90561904Y2759523D01*
X90609523Y2854761D01*
X90704761Y2950000D01*
X90847619Y2997619D01*
X90942857Y2997619D01*
X91085714Y2950000D01*
X91133333Y2902380D01*
X91514285Y2902380D02*
X91561904Y2950000D01*
X91657142Y2997619D01*
X91895238Y2997619D01*
X91990476Y2950000D01*
X92038095Y2902380D01*
X92085714Y2807142D01*
X92085714Y2711904D01*
X92038095Y2569047D01*
X91466666Y1997619D01*
X92085714Y1997619D01*
X82733333Y9492857D02*
X82685714Y9445238D01*
X82542857Y9397619D01*
X82447619Y9397619D01*
X82304761Y9445238D01*
X82209523Y9540476D01*
X82161904Y9635714D01*
X82114285Y9826190D01*
X82114285Y9969047D01*
X82161904Y10159523D01*
X82209523Y10254761D01*
X82304761Y10350000D01*
X82447619Y10397619D01*
X82542857Y10397619D01*
X82685714Y10350000D01*
X82733333Y10302380D01*
X83685714Y9397619D02*
X83114285Y9397619D01*
X83400000Y9397619D02*
X83400000Y10397619D01*
X83304761Y10254761D01*
X83209523Y10159523D01*
X83114285Y10111904D01*
M02*
