%FSLAX45Y45*%
G04 Gerber Fmt 4.5, Leading zero omitted, Abs format (unit mm)*
G04 Created by KiCad (PCBNEW 5.1.4) date 2020-01-07 14:28:47*
%MOMM*%
%LPD*%
G04 APERTURE LIST*
%ADD10C,0.050000*%
%ADD11C,0.200000*%
%ADD12C,0.300000*%
G04 APERTURE END LIST*
D10*
X12200000Y5800000D02*
X4080000Y5800000D01*
X12200000Y-2460000D02*
X12200000Y5800000D01*
X4080000Y-2460000D02*
X12200000Y-2460000D01*
X4080000Y5800000D02*
X4080000Y-2460000D01*
D11*
X7009000Y2521000D02*
X7359000Y2171000D01*
X7359000Y2521000D02*
X7009000Y2171000D01*
X5840000Y-900000D02*
G75*
G03X5840000Y-900000I-215000J0D01*
G01*
X10865000Y4250000D02*
G75*
G03X10865000Y4250000I-215000J0D01*
G01*
X5840000Y4250000D02*
G75*
G03X5840000Y4250000I-215000J0D01*
G01*
X10865000Y-875000D02*
G75*
G03X10865000Y-875000I-215000J0D01*
G01*
D12*
X4363928Y-2928214D02*
X4363928Y-2628214D01*
X4435357Y-2628214D01*
X4478214Y-2642500D01*
X4506786Y-2671072D01*
X4521071Y-2699643D01*
X4535357Y-2756786D01*
X4535357Y-2799643D01*
X4521071Y-2856786D01*
X4506786Y-2885357D01*
X4478214Y-2913929D01*
X4435357Y-2928214D01*
X4363928Y-2928214D01*
X4663928Y-2928214D02*
X4663928Y-2728214D01*
X4663928Y-2785357D02*
X4678214Y-2756786D01*
X4692500Y-2742500D01*
X4721071Y-2728214D01*
X4749643Y-2728214D01*
X4849643Y-2928214D02*
X4849643Y-2728214D01*
X4849643Y-2628214D02*
X4835357Y-2642500D01*
X4849643Y-2656786D01*
X4863928Y-2642500D01*
X4849643Y-2628214D01*
X4849643Y-2656786D01*
X5035357Y-2928214D02*
X5006786Y-2913929D01*
X4992500Y-2885357D01*
X4992500Y-2628214D01*
X5192500Y-2928214D02*
X5163928Y-2913929D01*
X5149643Y-2885357D01*
X5149643Y-2628214D01*
X5535357Y-2928214D02*
X5535357Y-2628214D01*
X5635357Y-2842500D01*
X5735357Y-2628214D01*
X5735357Y-2928214D01*
X6006786Y-2928214D02*
X6006786Y-2771072D01*
X5992500Y-2742500D01*
X5963928Y-2728214D01*
X5906786Y-2728214D01*
X5878214Y-2742500D01*
X6006786Y-2913929D02*
X5978214Y-2928214D01*
X5906786Y-2928214D01*
X5878214Y-2913929D01*
X5863928Y-2885357D01*
X5863928Y-2856786D01*
X5878214Y-2828214D01*
X5906786Y-2813929D01*
X5978214Y-2813929D01*
X6006786Y-2799643D01*
X6149643Y-2728214D02*
X6149643Y-3028214D01*
X6149643Y-2742500D02*
X6178214Y-2728214D01*
X6235357Y-2728214D01*
X6263928Y-2742500D01*
X6278214Y-2756786D01*
X6292500Y-2785357D01*
X6292500Y-2871071D01*
X6278214Y-2899643D01*
X6263928Y-2913929D01*
X6235357Y-2928214D01*
X6178214Y-2928214D01*
X6149643Y-2913929D01*
X6421071Y-2899643D02*
X6435357Y-2913929D01*
X6421071Y-2928214D01*
X6406786Y-2913929D01*
X6421071Y-2899643D01*
X6421071Y-2928214D01*
X6421071Y-2742500D02*
X6435357Y-2756786D01*
X6421071Y-2771072D01*
X6406786Y-2756786D01*
X6421071Y-2742500D01*
X6421071Y-2771072D01*
X3727500Y-3247500D02*
X4077500Y-3597500D01*
X4077500Y-3247500D02*
X3727500Y-3597500D01*
X4335357Y-3258214D02*
X4521071Y-3258214D01*
X4421071Y-3372500D01*
X4463928Y-3372500D01*
X4492500Y-3386786D01*
X4506786Y-3401071D01*
X4521071Y-3429643D01*
X4521071Y-3501071D01*
X4506786Y-3529643D01*
X4492500Y-3543929D01*
X4463928Y-3558214D01*
X4378214Y-3558214D01*
X4349643Y-3543929D01*
X4335357Y-3529643D01*
X4649643Y-3529643D02*
X4663928Y-3543929D01*
X4649643Y-3558214D01*
X4635357Y-3543929D01*
X4649643Y-3529643D01*
X4649643Y-3558214D01*
X4935357Y-3258214D02*
X4792500Y-3258214D01*
X4778214Y-3401071D01*
X4792500Y-3386786D01*
X4821071Y-3372500D01*
X4892500Y-3372500D01*
X4921071Y-3386786D01*
X4935357Y-3401071D01*
X4949643Y-3429643D01*
X4949643Y-3501071D01*
X4935357Y-3529643D01*
X4921071Y-3543929D01*
X4892500Y-3558214D01*
X4821071Y-3558214D01*
X4792500Y-3543929D01*
X4778214Y-3529643D01*
X5135357Y-3258214D02*
X5163928Y-3258214D01*
X5192500Y-3272500D01*
X5206786Y-3286786D01*
X5221071Y-3315357D01*
X5235357Y-3372500D01*
X5235357Y-3443929D01*
X5221071Y-3501071D01*
X5206786Y-3529643D01*
X5192500Y-3543929D01*
X5163928Y-3558214D01*
X5135357Y-3558214D01*
X5106786Y-3543929D01*
X5092500Y-3529643D01*
X5078214Y-3501071D01*
X5063928Y-3443929D01*
X5063928Y-3372500D01*
X5078214Y-3315357D01*
X5092500Y-3286786D01*
X5106786Y-3272500D01*
X5135357Y-3258214D01*
X5363928Y-3558214D02*
X5363928Y-3358214D01*
X5363928Y-3386786D02*
X5378214Y-3372500D01*
X5406786Y-3358214D01*
X5449643Y-3358214D01*
X5478214Y-3372500D01*
X5492500Y-3401071D01*
X5492500Y-3558214D01*
X5492500Y-3401071D02*
X5506786Y-3372500D01*
X5535357Y-3358214D01*
X5578214Y-3358214D01*
X5606786Y-3372500D01*
X5621071Y-3401071D01*
X5621071Y-3558214D01*
X5763928Y-3558214D02*
X5763928Y-3358214D01*
X5763928Y-3386786D02*
X5778214Y-3372500D01*
X5806786Y-3358214D01*
X5849643Y-3358214D01*
X5878214Y-3372500D01*
X5892500Y-3401071D01*
X5892500Y-3558214D01*
X5892500Y-3401071D02*
X5906786Y-3372500D01*
X5935357Y-3358214D01*
X5978214Y-3358214D01*
X6006786Y-3372500D01*
X6021071Y-3401071D01*
X6021071Y-3558214D01*
X6606786Y-3243929D02*
X6349643Y-3629643D01*
X6992500Y-3258214D02*
X7021071Y-3258214D01*
X7049643Y-3272500D01*
X7063928Y-3286786D01*
X7078214Y-3315357D01*
X7092500Y-3372500D01*
X7092500Y-3443929D01*
X7078214Y-3501071D01*
X7063928Y-3529643D01*
X7049643Y-3543929D01*
X7021071Y-3558214D01*
X6992500Y-3558214D01*
X6963928Y-3543929D01*
X6949643Y-3529643D01*
X6935357Y-3501071D01*
X6921071Y-3443929D01*
X6921071Y-3372500D01*
X6935357Y-3315357D01*
X6949643Y-3286786D01*
X6963928Y-3272500D01*
X6992500Y-3258214D01*
X7221071Y-3529643D02*
X7235357Y-3543929D01*
X7221071Y-3558214D01*
X7206786Y-3543929D01*
X7221071Y-3529643D01*
X7221071Y-3558214D01*
X7521071Y-3558214D02*
X7349643Y-3558214D01*
X7435357Y-3558214D02*
X7435357Y-3258214D01*
X7406786Y-3301071D01*
X7378214Y-3329643D01*
X7349643Y-3343929D01*
X7621071Y-3258214D02*
X7806786Y-3258214D01*
X7706786Y-3372500D01*
X7749643Y-3372500D01*
X7778214Y-3386786D01*
X7792500Y-3401071D01*
X7806786Y-3429643D01*
X7806786Y-3501071D01*
X7792500Y-3529643D01*
X7778214Y-3543929D01*
X7749643Y-3558214D01*
X7663928Y-3558214D01*
X7635357Y-3543929D01*
X7621071Y-3529643D01*
X7978214Y-3386786D02*
X7949643Y-3372500D01*
X7935357Y-3358214D01*
X7921071Y-3329643D01*
X7921071Y-3315357D01*
X7935357Y-3286786D01*
X7949643Y-3272500D01*
X7978214Y-3258214D01*
X8035357Y-3258214D01*
X8063928Y-3272500D01*
X8078214Y-3286786D01*
X8092500Y-3315357D01*
X8092500Y-3329643D01*
X8078214Y-3358214D01*
X8063928Y-3372500D01*
X8035357Y-3386786D01*
X7978214Y-3386786D01*
X7949643Y-3401071D01*
X7935357Y-3415357D01*
X7921071Y-3443929D01*
X7921071Y-3501071D01*
X7935357Y-3529643D01*
X7949643Y-3543929D01*
X7978214Y-3558214D01*
X8035357Y-3558214D01*
X8063928Y-3543929D01*
X8078214Y-3529643D01*
X8092500Y-3501071D01*
X8092500Y-3443929D01*
X8078214Y-3415357D01*
X8063928Y-3401071D01*
X8035357Y-3386786D01*
X8206786Y-3258214D02*
X8206786Y-3315357D01*
X8321071Y-3258214D02*
X8321071Y-3315357D01*
X8763928Y-3672500D02*
X8749643Y-3658214D01*
X8721071Y-3615357D01*
X8706786Y-3586786D01*
X8692500Y-3543929D01*
X8678214Y-3472500D01*
X8678214Y-3415357D01*
X8692500Y-3343929D01*
X8706786Y-3301071D01*
X8721071Y-3272500D01*
X8749643Y-3229643D01*
X8763928Y-3215357D01*
X9035357Y-3558214D02*
X8863928Y-3558214D01*
X8949643Y-3558214D02*
X8949643Y-3258214D01*
X8921071Y-3301071D01*
X8892500Y-3329643D01*
X8863928Y-3343929D01*
X9392500Y-3558214D02*
X9392500Y-3258214D01*
X9521071Y-3558214D02*
X9521071Y-3401071D01*
X9506786Y-3372500D01*
X9478214Y-3358214D01*
X9435357Y-3358214D01*
X9406786Y-3372500D01*
X9392500Y-3386786D01*
X9706786Y-3558214D02*
X9678214Y-3543929D01*
X9663928Y-3529643D01*
X9649643Y-3501071D01*
X9649643Y-3415357D01*
X9663928Y-3386786D01*
X9678214Y-3372500D01*
X9706786Y-3358214D01*
X9749643Y-3358214D01*
X9778214Y-3372500D01*
X9792500Y-3386786D01*
X9806786Y-3415357D01*
X9806786Y-3501071D01*
X9792500Y-3529643D01*
X9778214Y-3543929D01*
X9749643Y-3558214D01*
X9706786Y-3558214D01*
X9978214Y-3558214D02*
X9949643Y-3543929D01*
X9935357Y-3515357D01*
X9935357Y-3258214D01*
X10206786Y-3543929D02*
X10178214Y-3558214D01*
X10121071Y-3558214D01*
X10092500Y-3543929D01*
X10078214Y-3515357D01*
X10078214Y-3401071D01*
X10092500Y-3372500D01*
X10121071Y-3358214D01*
X10178214Y-3358214D01*
X10206786Y-3372500D01*
X10221071Y-3401071D01*
X10221071Y-3429643D01*
X10078214Y-3458214D01*
X10321071Y-3672500D02*
X10335357Y-3658214D01*
X10363928Y-3615357D01*
X10378214Y-3586786D01*
X10392500Y-3543929D01*
X10406786Y-3472500D01*
X10406786Y-3415357D01*
X10392500Y-3343929D01*
X10378214Y-3301071D01*
X10363928Y-3272500D01*
X10335357Y-3229643D01*
X10321071Y-3215357D01*
X10863928Y-3672500D02*
X10849643Y-3658214D01*
X10821071Y-3615357D01*
X10806786Y-3586786D01*
X10792500Y-3543929D01*
X10778214Y-3472500D01*
X10778214Y-3415357D01*
X10792500Y-3343929D01*
X10806786Y-3301071D01*
X10821071Y-3272500D01*
X10849643Y-3229643D01*
X10863928Y-3215357D01*
X10978214Y-3358214D02*
X10978214Y-3558214D01*
X10978214Y-3386786D02*
X10992500Y-3372500D01*
X11021071Y-3358214D01*
X11063928Y-3358214D01*
X11092500Y-3372500D01*
X11106786Y-3401071D01*
X11106786Y-3558214D01*
X11292500Y-3558214D02*
X11263928Y-3543929D01*
X11249643Y-3529643D01*
X11235357Y-3501071D01*
X11235357Y-3415357D01*
X11249643Y-3386786D01*
X11263928Y-3372500D01*
X11292500Y-3358214D01*
X11335357Y-3358214D01*
X11363928Y-3372500D01*
X11378214Y-3386786D01*
X11392500Y-3415357D01*
X11392500Y-3501071D01*
X11378214Y-3529643D01*
X11363928Y-3543929D01*
X11335357Y-3558214D01*
X11292500Y-3558214D01*
X11478214Y-3358214D02*
X11592500Y-3358214D01*
X11521071Y-3258214D02*
X11521071Y-3515357D01*
X11535357Y-3543929D01*
X11563928Y-3558214D01*
X11592500Y-3558214D01*
X11921071Y-3358214D02*
X11921071Y-3658214D01*
X11921071Y-3372500D02*
X11949643Y-3358214D01*
X12006786Y-3358214D01*
X12035357Y-3372500D01*
X12049643Y-3386786D01*
X12063928Y-3415357D01*
X12063928Y-3501071D01*
X12049643Y-3529643D01*
X12035357Y-3543929D01*
X12006786Y-3558214D01*
X11949643Y-3558214D01*
X11921071Y-3543929D01*
X12235357Y-3558214D02*
X12206786Y-3543929D01*
X12192500Y-3515357D01*
X12192500Y-3258214D01*
X12478214Y-3558214D02*
X12478214Y-3401071D01*
X12463928Y-3372500D01*
X12435357Y-3358214D01*
X12378214Y-3358214D01*
X12349643Y-3372500D01*
X12478214Y-3543929D02*
X12449643Y-3558214D01*
X12378214Y-3558214D01*
X12349643Y-3543929D01*
X12335357Y-3515357D01*
X12335357Y-3486786D01*
X12349643Y-3458214D01*
X12378214Y-3443929D01*
X12449643Y-3443929D01*
X12478214Y-3429643D01*
X12578214Y-3358214D02*
X12692500Y-3358214D01*
X12621071Y-3258214D02*
X12621071Y-3515357D01*
X12635357Y-3543929D01*
X12663928Y-3558214D01*
X12692500Y-3558214D01*
X12906786Y-3543929D02*
X12878214Y-3558214D01*
X12821071Y-3558214D01*
X12792500Y-3543929D01*
X12778214Y-3515357D01*
X12778214Y-3401071D01*
X12792500Y-3372500D01*
X12821071Y-3358214D01*
X12878214Y-3358214D01*
X12906786Y-3372500D01*
X12921071Y-3401071D01*
X12921071Y-3429643D01*
X12778214Y-3458214D01*
X13178214Y-3558214D02*
X13178214Y-3258214D01*
X13178214Y-3543929D02*
X13149643Y-3558214D01*
X13092500Y-3558214D01*
X13063928Y-3543929D01*
X13049643Y-3529643D01*
X13035357Y-3501071D01*
X13035357Y-3415357D01*
X13049643Y-3386786D01*
X13063928Y-3372500D01*
X13092500Y-3358214D01*
X13149643Y-3358214D01*
X13178214Y-3372500D01*
X13292500Y-3672500D02*
X13306786Y-3658214D01*
X13335357Y-3615357D01*
X13349643Y-3586786D01*
X13363928Y-3543929D01*
X13378214Y-3472500D01*
X13378214Y-3415357D01*
X13363928Y-3343929D01*
X13349643Y-3301071D01*
X13335357Y-3272500D01*
X13306786Y-3229643D01*
X13292500Y-3215357D01*
X4077500Y-3902500D02*
G75*
G03X4077500Y-3902500I-215000J0D01*
G01*
X4492500Y-3838214D02*
X4492500Y-4038214D01*
X4421071Y-3723929D02*
X4349643Y-3938214D01*
X4535357Y-3938214D01*
X4649643Y-4009643D02*
X4663928Y-4023929D01*
X4649643Y-4038214D01*
X4635357Y-4023929D01*
X4649643Y-4009643D01*
X4649643Y-4038214D01*
X4763928Y-3738214D02*
X4949643Y-3738214D01*
X4849643Y-3852500D01*
X4892500Y-3852500D01*
X4921071Y-3866786D01*
X4935357Y-3881071D01*
X4949643Y-3909643D01*
X4949643Y-3981071D01*
X4935357Y-4009643D01*
X4921071Y-4023929D01*
X4892500Y-4038214D01*
X4806786Y-4038214D01*
X4778214Y-4023929D01*
X4763928Y-4009643D01*
X5135357Y-3738214D02*
X5163928Y-3738214D01*
X5192500Y-3752500D01*
X5206786Y-3766786D01*
X5221071Y-3795357D01*
X5235357Y-3852500D01*
X5235357Y-3923929D01*
X5221071Y-3981071D01*
X5206786Y-4009643D01*
X5192500Y-4023929D01*
X5163928Y-4038214D01*
X5135357Y-4038214D01*
X5106786Y-4023929D01*
X5092500Y-4009643D01*
X5078214Y-3981071D01*
X5063928Y-3923929D01*
X5063928Y-3852500D01*
X5078214Y-3795357D01*
X5092500Y-3766786D01*
X5106786Y-3752500D01*
X5135357Y-3738214D01*
X5363928Y-4038214D02*
X5363928Y-3838214D01*
X5363928Y-3866786D02*
X5378214Y-3852500D01*
X5406786Y-3838214D01*
X5449643Y-3838214D01*
X5478214Y-3852500D01*
X5492500Y-3881071D01*
X5492500Y-4038214D01*
X5492500Y-3881071D02*
X5506786Y-3852500D01*
X5535357Y-3838214D01*
X5578214Y-3838214D01*
X5606786Y-3852500D01*
X5621071Y-3881071D01*
X5621071Y-4038214D01*
X5763928Y-4038214D02*
X5763928Y-3838214D01*
X5763928Y-3866786D02*
X5778214Y-3852500D01*
X5806786Y-3838214D01*
X5849643Y-3838214D01*
X5878214Y-3852500D01*
X5892500Y-3881071D01*
X5892500Y-4038214D01*
X5892500Y-3881071D02*
X5906786Y-3852500D01*
X5935357Y-3838214D01*
X5978214Y-3838214D01*
X6006786Y-3852500D01*
X6021071Y-3881071D01*
X6021071Y-4038214D01*
X6606786Y-3723929D02*
X6349643Y-4109643D01*
X6992500Y-3738214D02*
X7021071Y-3738214D01*
X7049643Y-3752500D01*
X7063928Y-3766786D01*
X7078214Y-3795357D01*
X7092500Y-3852500D01*
X7092500Y-3923929D01*
X7078214Y-3981071D01*
X7063928Y-4009643D01*
X7049643Y-4023929D01*
X7021071Y-4038214D01*
X6992500Y-4038214D01*
X6963928Y-4023929D01*
X6949643Y-4009643D01*
X6935357Y-3981071D01*
X6921071Y-3923929D01*
X6921071Y-3852500D01*
X6935357Y-3795357D01*
X6949643Y-3766786D01*
X6963928Y-3752500D01*
X6992500Y-3738214D01*
X7221071Y-4009643D02*
X7235357Y-4023929D01*
X7221071Y-4038214D01*
X7206786Y-4023929D01*
X7221071Y-4009643D01*
X7221071Y-4038214D01*
X7521071Y-4038214D02*
X7349643Y-4038214D01*
X7435357Y-4038214D02*
X7435357Y-3738214D01*
X7406786Y-3781071D01*
X7378214Y-3809643D01*
X7349643Y-3823929D01*
X7778214Y-3738214D02*
X7721071Y-3738214D01*
X7692500Y-3752500D01*
X7678214Y-3766786D01*
X7649643Y-3809643D01*
X7635357Y-3866786D01*
X7635357Y-3981071D01*
X7649643Y-4009643D01*
X7663928Y-4023929D01*
X7692500Y-4038214D01*
X7749643Y-4038214D01*
X7778214Y-4023929D01*
X7792500Y-4009643D01*
X7806786Y-3981071D01*
X7806786Y-3909643D01*
X7792500Y-3881071D01*
X7778214Y-3866786D01*
X7749643Y-3852500D01*
X7692500Y-3852500D01*
X7663928Y-3866786D01*
X7649643Y-3881071D01*
X7635357Y-3909643D01*
X7949643Y-4038214D02*
X8006786Y-4038214D01*
X8035357Y-4023929D01*
X8049643Y-4009643D01*
X8078214Y-3966786D01*
X8092500Y-3909643D01*
X8092500Y-3795357D01*
X8078214Y-3766786D01*
X8063928Y-3752500D01*
X8035357Y-3738214D01*
X7978214Y-3738214D01*
X7949643Y-3752500D01*
X7935357Y-3766786D01*
X7921071Y-3795357D01*
X7921071Y-3866786D01*
X7935357Y-3895357D01*
X7949643Y-3909643D01*
X7978214Y-3923929D01*
X8035357Y-3923929D01*
X8063928Y-3909643D01*
X8078214Y-3895357D01*
X8092500Y-3866786D01*
X8206786Y-3738214D02*
X8206786Y-3795357D01*
X8321071Y-3738214D02*
X8321071Y-3795357D01*
X8763928Y-4152500D02*
X8749643Y-4138214D01*
X8721071Y-4095357D01*
X8706786Y-4066786D01*
X8692500Y-4023929D01*
X8678214Y-3952500D01*
X8678214Y-3895357D01*
X8692500Y-3823929D01*
X8706786Y-3781071D01*
X8721071Y-3752500D01*
X8749643Y-3709643D01*
X8763928Y-3695357D01*
X9006786Y-3838214D02*
X9006786Y-4038214D01*
X8935357Y-3723929D02*
X8863928Y-3938214D01*
X9049643Y-3938214D01*
X9392500Y-4038214D02*
X9392500Y-3738214D01*
X9521071Y-4038214D02*
X9521071Y-3881071D01*
X9506786Y-3852500D01*
X9478214Y-3838214D01*
X9435357Y-3838214D01*
X9406786Y-3852500D01*
X9392500Y-3866786D01*
X9706786Y-4038214D02*
X9678214Y-4023929D01*
X9663928Y-4009643D01*
X9649643Y-3981071D01*
X9649643Y-3895357D01*
X9663928Y-3866786D01*
X9678214Y-3852500D01*
X9706786Y-3838214D01*
X9749643Y-3838214D01*
X9778214Y-3852500D01*
X9792500Y-3866786D01*
X9806786Y-3895357D01*
X9806786Y-3981071D01*
X9792500Y-4009643D01*
X9778214Y-4023929D01*
X9749643Y-4038214D01*
X9706786Y-4038214D01*
X9978214Y-4038214D02*
X9949643Y-4023929D01*
X9935357Y-3995357D01*
X9935357Y-3738214D01*
X10206786Y-4023929D02*
X10178214Y-4038214D01*
X10121071Y-4038214D01*
X10092500Y-4023929D01*
X10078214Y-3995357D01*
X10078214Y-3881071D01*
X10092500Y-3852500D01*
X10121071Y-3838214D01*
X10178214Y-3838214D01*
X10206786Y-3852500D01*
X10221071Y-3881071D01*
X10221071Y-3909643D01*
X10078214Y-3938214D01*
X10335357Y-4023929D02*
X10363928Y-4038214D01*
X10421071Y-4038214D01*
X10449643Y-4023929D01*
X10463928Y-3995357D01*
X10463928Y-3981071D01*
X10449643Y-3952500D01*
X10421071Y-3938214D01*
X10378214Y-3938214D01*
X10349643Y-3923929D01*
X10335357Y-3895357D01*
X10335357Y-3881071D01*
X10349643Y-3852500D01*
X10378214Y-3838214D01*
X10421071Y-3838214D01*
X10449643Y-3852500D01*
X10563928Y-4152500D02*
X10578214Y-4138214D01*
X10606786Y-4095357D01*
X10621071Y-4066786D01*
X10635357Y-4023929D01*
X10649643Y-3952500D01*
X10649643Y-3895357D01*
X10635357Y-3823929D01*
X10621071Y-3781071D01*
X10606786Y-3752500D01*
X10578214Y-3709643D01*
X10563928Y-3695357D01*
X11106786Y-4152500D02*
X11092500Y-4138214D01*
X11063928Y-4095357D01*
X11049643Y-4066786D01*
X11035357Y-4023929D01*
X11021071Y-3952500D01*
X11021071Y-3895357D01*
X11035357Y-3823929D01*
X11049643Y-3781071D01*
X11063928Y-3752500D01*
X11092500Y-3709643D01*
X11106786Y-3695357D01*
X11221071Y-3838214D02*
X11221071Y-4038214D01*
X11221071Y-3866786D02*
X11235357Y-3852500D01*
X11263928Y-3838214D01*
X11306786Y-3838214D01*
X11335357Y-3852500D01*
X11349643Y-3881071D01*
X11349643Y-4038214D01*
X11535357Y-4038214D02*
X11506786Y-4023929D01*
X11492500Y-4009643D01*
X11478214Y-3981071D01*
X11478214Y-3895357D01*
X11492500Y-3866786D01*
X11506786Y-3852500D01*
X11535357Y-3838214D01*
X11578214Y-3838214D01*
X11606786Y-3852500D01*
X11621071Y-3866786D01*
X11635357Y-3895357D01*
X11635357Y-3981071D01*
X11621071Y-4009643D01*
X11606786Y-4023929D01*
X11578214Y-4038214D01*
X11535357Y-4038214D01*
X11721071Y-3838214D02*
X11835357Y-3838214D01*
X11763928Y-3738214D02*
X11763928Y-3995357D01*
X11778214Y-4023929D01*
X11806786Y-4038214D01*
X11835357Y-4038214D01*
X12163928Y-3838214D02*
X12163928Y-4138214D01*
X12163928Y-3852500D02*
X12192500Y-3838214D01*
X12249643Y-3838214D01*
X12278214Y-3852500D01*
X12292500Y-3866786D01*
X12306786Y-3895357D01*
X12306786Y-3981071D01*
X12292500Y-4009643D01*
X12278214Y-4023929D01*
X12249643Y-4038214D01*
X12192500Y-4038214D01*
X12163928Y-4023929D01*
X12478214Y-4038214D02*
X12449643Y-4023929D01*
X12435357Y-3995357D01*
X12435357Y-3738214D01*
X12721071Y-4038214D02*
X12721071Y-3881071D01*
X12706786Y-3852500D01*
X12678214Y-3838214D01*
X12621071Y-3838214D01*
X12592500Y-3852500D01*
X12721071Y-4023929D02*
X12692500Y-4038214D01*
X12621071Y-4038214D01*
X12592500Y-4023929D01*
X12578214Y-3995357D01*
X12578214Y-3966786D01*
X12592500Y-3938214D01*
X12621071Y-3923929D01*
X12692500Y-3923929D01*
X12721071Y-3909643D01*
X12821071Y-3838214D02*
X12935357Y-3838214D01*
X12863928Y-3738214D02*
X12863928Y-3995357D01*
X12878214Y-4023929D01*
X12906786Y-4038214D01*
X12935357Y-4038214D01*
X13149643Y-4023929D02*
X13121071Y-4038214D01*
X13063928Y-4038214D01*
X13035357Y-4023929D01*
X13021071Y-3995357D01*
X13021071Y-3881071D01*
X13035357Y-3852500D01*
X13063928Y-3838214D01*
X13121071Y-3838214D01*
X13149643Y-3852500D01*
X13163928Y-3881071D01*
X13163928Y-3909643D01*
X13021071Y-3938214D01*
X13421071Y-4038214D02*
X13421071Y-3738214D01*
X13421071Y-4023929D02*
X13392500Y-4038214D01*
X13335357Y-4038214D01*
X13306786Y-4023929D01*
X13292500Y-4009643D01*
X13278214Y-3981071D01*
X13278214Y-3895357D01*
X13292500Y-3866786D01*
X13306786Y-3852500D01*
X13335357Y-3838214D01*
X13392500Y-3838214D01*
X13421071Y-3852500D01*
X13535357Y-4152500D02*
X13549643Y-4138214D01*
X13578214Y-4095357D01*
X13592500Y-4066786D01*
X13606786Y-4023929D01*
X13621071Y-3952500D01*
X13621071Y-3895357D01*
X13606786Y-3823929D01*
X13592500Y-3781071D01*
X13578214Y-3752500D01*
X13549643Y-3709643D01*
X13535357Y-3695357D01*
M02*
