M48
; DRILL file {KiCad 5.1.4} date Tue 07 Jan 2020 02:28:47 PM EST
; FORMAT={-:-/ absolute / inch / decimal}
; #@! TF.CreationDate,2020-01-07T14:28:47-05:00
; #@! TF.GenerationSoftware,Kicad,Pcbnew,5.1.4
; #@! TF.FileFunction,Plated,1,2,PTH
FMAT,2
INCH
T1C0.0394
T2C0.0433
T3C0.0512
%
G90
G05
T1
X3.0551Y-0.1756
X3.0551Y-0.2756
X3.1654Y0.1417
X3.3622Y0.1417
X3.4961Y-0.1496
X3.6929Y-0.1496
T2
X2.7283Y0.2677
X2.8283Y0.2677
X2.9283Y0.2677
T3
X4.5787Y1.7402
X4.5787Y1.5433
X4.5787Y1.3465
X4.5787Y1.1496
X4.5787Y0.9528
X4.5787Y0.7559
X4.5787Y0.5591
X4.5787Y0.3622
X4.5787Y0.1654
X4.5787Y-0.0315
X4.5787Y-0.2283
X4.5787Y-0.4252
X1.7283Y2.0591
X1.9252Y2.0591
X2.122Y2.0591
X2.3189Y2.0591
X2.5157Y2.0591
X2.7126Y2.0591
X2.9094Y2.0591
X3.1063Y2.0591
X3.3031Y2.0591
X3.5Y2.0591
X3.6969Y2.0591
X3.8937Y2.0591
X4.0906Y2.0591
X4.2874Y2.0591
X4.4843Y2.0591
X4.6811Y2.0591
X1.8268Y1.7402
X1.8268Y1.5433
X1.8268Y1.3465
X1.8268Y1.1496
X1.8268Y0.9528
X1.8268Y0.7559
X1.8268Y0.5591
X1.8268Y0.3622
X1.8268Y0.1654
X1.8268Y-0.0315
X1.8268Y-0.2283
X1.8268Y-0.4252
X1.7283Y-0.7441
X1.9252Y-0.7441
X2.122Y-0.7441
X2.3189Y-0.7441
X2.5157Y-0.7441
X2.7126Y-0.7441
X2.9094Y-0.7441
X3.1063Y-0.7441
X3.3031Y-0.7441
X3.5Y-0.7441
X3.6969Y-0.7441
X3.8937Y-0.7441
X4.0906Y-0.7441
X4.2874Y-0.7441
X4.4843Y-0.7441
X4.6811Y-0.7441
T0
M30
