G04 #@! TF.GenerationSoftware,KiCad,Pcbnew,5.1.4*
G04 #@! TF.CreationDate,2020-01-07T14:28:49-05:00*
G04 #@! TF.ProjectId,model-train-cdu,6d6f6465-6c2d-4747-9261-696e2d636475,rev?*
G04 #@! TF.SameCoordinates,Original*
G04 #@! TF.FileFunction,Copper,L2,Bot*
G04 #@! TF.FilePolarity,Positive*
%FSLAX46Y46*%
G04 Gerber Fmt 4.6, Leading zero omitted, Abs format (unit mm)*
G04 Created by KiCad (PCBNEW 5.1.4) date 2020-01-07 14:28:49*
%MOMM*%
%LPD*%
G04 APERTURE LIST*
%ADD10C,2.600000*%
%ADD11R,2.600000X2.600000*%
%ADD12O,1.905000X2.000000*%
%ADD13R,1.905000X2.000000*%
%ADD14R,2.000000X2.000000*%
%ADD15C,2.000000*%
G04 APERTURE END LIST*
D10*
X46400000Y-10800000D03*
X46400000Y-5800000D03*
X46400000Y-800000D03*
X46400000Y4200000D03*
X46400000Y9200000D03*
X46400000Y14200000D03*
X46400000Y19200000D03*
X46400000Y24200000D03*
X46400000Y29200000D03*
X46400000Y34200000D03*
X46400000Y39200000D03*
D11*
X46400000Y44200000D03*
D10*
X116300000Y44200000D03*
X116300000Y39200000D03*
X116300000Y34200000D03*
X116300000Y29200000D03*
X116300000Y24200000D03*
X116300000Y19200000D03*
X116300000Y14200000D03*
X116300000Y9200000D03*
X116300000Y4200000D03*
X116300000Y-800000D03*
X116300000Y-5800000D03*
D11*
X116300000Y-10800000D03*
D10*
X43900000Y52300000D03*
X48900000Y52300000D03*
X53900000Y52300000D03*
X58900000Y52300000D03*
X63900000Y52300000D03*
X68900000Y52300000D03*
X73900000Y52300000D03*
X78900000Y52300000D03*
X83900000Y52300000D03*
X88900000Y52300000D03*
X93900000Y52300000D03*
X98900000Y52300000D03*
X103900000Y52300000D03*
X108900000Y52300000D03*
X113900000Y52300000D03*
D11*
X118900000Y52300000D03*
D10*
X118900000Y-18900000D03*
X113900000Y-18900000D03*
X108900000Y-18900000D03*
X103900000Y-18900000D03*
X98900000Y-18900000D03*
X93900000Y-18900000D03*
X88900000Y-18900000D03*
X83900000Y-18900000D03*
X78900000Y-18900000D03*
X73900000Y-18900000D03*
X68900000Y-18900000D03*
X63900000Y-18900000D03*
X58900000Y-18900000D03*
X53900000Y-18900000D03*
X48900000Y-18900000D03*
D11*
X43900000Y-18900000D03*
D12*
X74380000Y6800000D03*
X71840000Y6800000D03*
D13*
X69300000Y6800000D03*
D14*
X77600000Y-4460000D03*
D15*
X77600000Y-7000000D03*
X93800000Y-3800000D03*
D14*
X88800000Y-3800000D03*
D15*
X85400000Y3600000D03*
D14*
X80400000Y3600000D03*
M02*
